<?xml version="1.0" encoding="UTF-8"?>
<!DOCTYPE svg PUBLIC "-//W3C//DTD SVG 1.1//EN" "http://www.w3.org/Graphics/SVG/1.1/DTD/svg11.dtd">
<svg xmlns="http://www.w3.org/2000/svg" version="1.1" width="63px" height="67px" style="shape-rendering:geometricPrecision; text-rendering:geometricPrecision; image-rendering:optimizeQuality; fill-rule:evenodd; clip-rule:evenodd" xmlns:xlink="http://www.w3.org/1999/xlink">
<g><path style="opacity:0.918" fill="#020202" d="M 31.5,30.5 C 30.7611,30.369 30.0944,30.5357 29.5,31C 33.2605,35.9549 37.5939,36.6216 42.5,33C 42.2716,32.6012 41.9382,32.4346 41.5,32.5C 42.5018,29.8257 44.0018,27.4924 46,25.5C 48.3333,27.8113 50.6667,30.1447 53,32.5C 54.4217,35.0301 54.755,37.6967 54,40.5C 51.6606,44.3282 49.1606,47.9948 46.5,51.5C 46.6082,52.4419 46.9415,53.2753 47.5,54C 50.4695,54.7378 53.1362,55.9045 55.5,57.5C 51.7949,60.4748 47.4615,62.1415 42.5,62.5C 42.6204,60.8014 42.9537,59.1347 43.5,57.5C 43.0485,55.6878 41.8818,54.6878 40,54.5C 35.8764,55.5715 31.7097,55.7382 27.5,55C 25.0366,52.435 22.0366,50.935 18.5,50.5C 17.1055,50.6207 15.7722,50.954 14.5,51.5C 12.9093,56.7541 10.9093,57.2541 8.5,53C 11.4036,49.0214 10.5703,45.8548 6,43.5C 5.38767,41.7627 6.05433,40.7627 8,40.5C 10.1124,41.608 11.9458,43.108 13.5,45C 14.8333,45.6667 16.1667,45.6667 17.5,45C 18.2883,41.9243 18.7883,38.7577 19,35.5C 20.1667,34.3333 21.3333,33.1667 22.5,32C 14,31.5 9.5,27 9,18.5C 7.5,17 6,15.5 4.5,14C 8.41947,12.4164 11.4195,9.74975 13.5,6C 28.7132,0.220141 35.5466,5.38681 34,21.5C 33.0701,23.9361 31.9034,26.2695 30.5,28.5C 30.8627,29.1835 31.1961,29.8501 31.5,30.5 Z"/></g>
<g><path style="opacity:1" fill="#6a6765" d="M 31.5,30.5 C 34.2881,33.5223 37.6214,34.189 41.5,32.5C 41.9382,32.4346 42.2716,32.6012 42.5,33C 37.5939,36.6216 33.2605,35.9549 29.5,31C 30.0944,30.5357 30.7611,30.369 31.5,30.5 Z"/></g>
</svg>
