<svg version="1.1" id="Layer_1" xmlns="http://www.w3.org/2000/svg" xmlns:xlink="http://www.w3.org/1999/xlink" x="0px" y="0px"
	 width="100%" viewBox="0 0 500 511" enable-background="new 0 0 500 511" xml:space="preserve">

<path fill="#FFFFFF" opacity="1.000000" stroke="white" stroke-width="10" 
	d="
M175.828140,386.331726 
	C165.742142,377.114716 161.970230,365.138397 159.037933,352.776642 
	C158.440964,350.259918 158.388214,347.618988 157.963943,345.055267 
	C157.294281,341.008911 154.844696,338.623138 151.259277,336.547272 
	C141.378860,330.826721 131.051468,325.512390 122.260590,318.364990 
	C110.289276,308.631775 104.419617,294.317200 109.664635,276.708099 
	C110.348221,274.413116 110.776100,272.041992 111.702591,268.080566 
	C99.395302,268.658112 87.945648,269.195404 75.924217,269.759521 
	C81.461075,262.456146 86.199387,254.805237 92.342499,248.529434 
	C97.616478,243.141556 96.490852,237.805252 94.597580,232.308197 
	C92.866951,227.283371 88.911850,223.711639 83.716682,222.035538 
	C70.340134,217.719879 59.056248,209.959991 49.049824,200.409256 
	C41.001183,192.727173 33.580727,184.386612 25.896702,176.323761 
	C25.489866,175.896866 25.224283,175.335358 24.426508,174.134293 
	C43.824574,171.723877 62.372768,172.575806 81.320503,176.236832 
	C77.661682,171.764435 73.802780,167.438248 70.398483,162.779861 
	C66.757248,157.797272 65.285698,152.074295 68.324158,146.357361 
	C70.930534,141.453384 79.940857,139.053574 86.343475,140.051239 
	C103.167015,142.672745 116.333069,151.583649 127.897255,163.411896 
	C136.263382,171.969070 144.615540,180.666428 155.916824,185.272278 
	C161.496796,187.546402 167.551437,189.205322 173.528397,189.829208 
	C182.878708,190.805176 192.352142,191.071701 201.761276,190.913986 
	C220.236420,190.604263 238.116760,186.715332 254.802414,178.857101 
	C266.242828,173.469177 277.087769,166.781052 288.031952,160.388260 
	C294.997009,156.319763 298.982574,149.504776 303.054749,142.793289 
	C311.646759,128.632614 319.662445,114.028702 329.386505,100.678787 
	C336.865814,90.410637 346.197205,81.381462 360.262299,79.789871 
	C365.343384,79.214897 369.059631,75.539421 372.794647,71.964859 
	C376.282257,68.627090 380.825928,66.392761 384.538025,63.917313 
	C382.250519,56.975578 379.350464,49.039021 377.041962,40.933975 
	C374.576721,32.278870 379.075165,27.237516 388.170776,28.832682 
	C394.698364,29.977459 401.005402,32.379654 407.927460,34.369385 
	C407.463745,34.763737 407.886353,34.584030 407.917175,34.352261 
	C409.215851,24.577934 416.771179,22.815603 424.464905,26.882915 
	C432.590149,31.178352 432.888885,31.274708 437.115723,40.587326 
	C450.014587,38.610092 456.062714,43.333572 460.281525,58.786346 
	C464.011932,59.671757 469.140625,57.180115 471.366547,62.024826 
	C473.670349,67.039146 476.098999,72.303955 476.813293,77.679733 
	C478.560455,90.828934 473.609833,102.139526 465.397491,112.252518 
	C464.049835,113.912033 462.812286,115.801247 464.650269,118.505402 
	C466.100800,120.639542 466.456818,123.617981 466.946808,126.286118 
	C468.506622,134.779343 461.626740,139.549911 452.064026,136.541550 
	C447.518524,135.111572 443.082733,133.332855 438.000000,131.496338 
	C438.000000,140.776978 438.000000,149.397888 438.000000,158.018784 
	C438.000000,168.018585 438.486481,178.047043 437.899963,188.012314 
	C436.630768,209.576752 435.223877,231.119507 428.155365,251.886337 
	C424.673828,262.114899 418.284332,270.321106 411.847046,278.492889 
	C401.047150,292.202759 389.776855,305.546417 378.540009,318.905823 
	C373.040283,325.444397 367.219086,331.715942 361.458740,338.031128 
	C347.021057,353.859558 332.530518,369.639740 318.072296,385.449463 
	C315.189148,388.602203 312.096344,391.612152 309.600494,395.051025 
	C308.203583,396.975739 306.878082,399.774323 307.170868,401.957855 
	C308.308136,410.439667 309.905396,418.876404 311.720795,427.245514 
	C313.269592,434.385742 314.171204,434.927856 321.540222,434.982300 
	C331.263092,435.054138 340.986877,434.999969 351.112793,434.999969 
	C350.551117,440.755463 350.127777,445.093170 349.631927,450.173859 
	C344.644257,449.797791 339.555145,449.414032 333.214539,448.935913 
	C340.861420,454.899689 347.576294,460.136597 354.519409,465.551544 
	C351.664673,469.288391 349.125549,472.612091 346.238678,476.391022 
	C338.853088,470.990265 331.536743,465.640137 324.220398,460.290009 
	C323.906189,460.597595 323.591980,460.905151 323.277771,461.212738 
	C325.743530,468.669128 328.209259,476.125519 330.884155,484.214386 
	C326.526459,485.590942 322.059998,487.001892 317.683502,488.384399 
	C312.553436,473.248474 308.698242,458.373260 302.447113,444.584229 
	C297.793732,434.319550 297.907745,423.505920 295.077637,413.133392 
	C293.932709,408.937225 293.818573,404.467194 292.844788,400.211151 
	C292.631531,399.279022 290.800232,398.201752 289.635315,398.100861 
	C286.336243,397.815125 282.996307,398.000793 279.570831,398.000793 
	C277.305847,406.226624 275.073059,414.335602 272.683899,423.012451 
	C277.979065,422.188202 282.689758,421.454926 287.741516,420.668579 
	C288.281403,425.643402 288.765503,430.104340 289.247162,434.542694 
	C284.806610,435.163879 280.992035,435.697510 276.480499,436.328644 
	C280.330383,441.111755 283.624573,445.697754 287.450470,449.786194 
	C290.047211,452.561218 288.793427,454.070648 286.615692,455.788116 
	C286.385437,455.969727 285.944794,455.873718 285.695679,456.043976 
	C283.337463,457.655640 280.723633,460.865540 278.729065,460.514526 
	C276.473053,460.117554 274.761383,456.546295 272.844208,454.328369 
	C271.028748,452.228119 268.864594,450.307922 267.548035,447.924988 
	C265.323242,443.898132 264.271057,446.446014 263.175720,448.454468 
	C261.872345,450.844391 260.805023,453.363037 259.495148,456.121277 
	C255.366714,454.326385 251.300888,452.558716 247.964752,451.108307 
	C254.223923,432.650879 260.414062,414.397064 266.694336,395.877411 
	C252.077423,388.546875 238.084671,381.396942 223.915497,374.615723 
	C222.397141,373.889038 219.287552,374.646423 217.874847,375.845184 
	C210.017776,382.512573 201.484344,387.592896 191.416519,390.323517 
	C185.314880,391.978394 180.734207,389.692871 175.828140,386.331726 
M322.516479,136.988693 
	C320.013336,141.297379 317.559540,145.635696 314.995972,149.908112 
	C310.722137,157.030701 306.488678,164.066452 299.550873,169.211884 
	C288.239532,177.600952 276.152252,184.459625 263.366089,190.335373 
	C243.208481,199.598618 222.015457,204.287354 200.011795,204.833603 
	C188.700272,205.114426 177.241837,204.377136 166.048355,202.741211 
	C158.928635,201.700653 151.874756,198.782745 145.322098,195.610397 
	C134.429947,190.337219 126.263908,181.410538 117.547836,173.220825 
	C111.397346,167.441772 105.750618,160.772003 97.376663,157.870483 
	C92.430359,156.156601 87.708801,153.107239 81.234581,154.425827 
	C94.945557,169.200211 106.036110,184.323334 105.029053,205.371185 
	C90.736458,194.530411 74.529991,188.310364 55.433029,186.966614 
	C65.377838,196.873947 75.763245,204.205093 87.985283,209.096191 
	C92.678574,210.974380 97.934937,213.244110 101.051201,216.928513 
	C110.545662,228.154007 113.226799,240.995071 106.718933,254.617676 
	C109.624023,255.082397 112.641121,255.151993 115.359558,256.088531 
	C120.527145,257.868805 126.492180,259.561157 126.116982,266.635529 
	C125.890419,270.907196 124.394287,275.138000 123.255203,279.329163 
	C121.071030,287.365631 121.066902,294.872620 126.391792,302.019043 
	C133.955978,312.170776 144.768021,317.537140 155.614975,322.967102 
	C155.862930,323.091187 156.265274,322.906860 156.750076,322.847473 
	C156.910202,321.642303 157.074539,320.405487 157.302216,318.691895 
	C162.051178,319.237885 166.513458,319.750885 170.680695,320.230011 
	C170.419647,322.403503 169.972275,324.160522 170.045624,325.895569 
	C170.246643,330.650940 170.674484,335.396484 170.998291,340.146942 
	C171.733368,350.930634 174.825546,361.098145 180.299255,370.303864 
	C182.094635,373.323364 184.814896,378.457520 189.238693,376.687561 
	C195.558121,374.159119 201.720184,370.561310 207.002472,366.257843 
	C217.917877,357.365082 225.466629,345.764435 231.043411,332.857910 
	C232.638428,329.166504 233.841827,323.489410 236.547974,322.555115 
	C239.918900,321.391235 244.660217,324.196411 249.808914,325.550476 
	C243.733994,337.795013 237.839386,349.676056 231.697266,362.056000 
	C232.125427,362.324036 233.402054,363.242889 234.781494,363.965485 
	C240.049683,366.725159 245.309052,369.507141 250.648224,372.124725 
	C263.476440,378.413879 275.268097,387.169342 291.100098,385.315186 
	C297.074768,384.615479 301.739319,383.651062 305.626678,378.976715 
	C309.525299,374.288849 313.928162,370.024506 317.988831,365.466522 
	C330.987518,350.875946 343.930176,336.235382 356.894196,321.613861 
	C364.763458,312.738434 372.786652,303.993439 380.456024,294.948547 
	C387.506653,286.633392 393.823395,277.678833 401.092499,269.569916 
	C413.382782,255.859818 419.019318,239.592224 420.981903,221.716644 
	C421.767120,214.564499 422.411743,207.395218 423.006134,200.224274 
	C423.720642,191.604584 424.313354,182.974808 424.965576,174.258636 
	C409.582031,170.980621 394.947479,166.425049 381.408539,158.807327 
	C366.577942,150.462860 357.202393,138.550217 358.138336,120.812607 
	C358.609283,111.887863 360.527649,103.039497 361.825104,93.920334 
	C354.839569,94.231964 348.985657,98.529556 344.867554,103.953438 
	C336.992981,114.324982 330.204956,125.521492 322.516479,136.988693 
M380.519440,141.011322 
	C386.436096,144.573120 392.059326,148.813522 398.341492,151.530075 
	C406.761139,155.170944 415.690704,157.632523 424.000000,160.463684 
	C424.000000,149.605270 423.999939,139.546158 424.000000,129.487030 
	C424.000031,119.048943 429.266174,115.083771 439.413086,117.780655 
	C442.823608,118.687126 446.296814,119.357773 449.741364,120.136200 
	C450.114044,119.645088 450.486755,119.153984 450.859467,118.662880 
	C444.976166,109.682411 439.883850,100.035141 433.014008,91.886353 
	C423.954468,81.140144 413.441620,72.752228 397.245972,75.733536 
	C386.938812,77.630882 380.502167,82.074059 377.998169,92.197701 
	C376.305481,99.041183 374.151459,105.786140 372.778687,112.689499 
	C370.726471,123.009842 371.162231,132.910767 380.519440,141.011322 
M446.970673,86.658409 
	C449.634552,90.683609 452.223328,94.762802 455.038330,98.679367 
	C455.492737,99.311600 457.754517,99.585197 457.834137,99.410591 
	C460.771210,92.968178 464.703125,86.759583 463.699402,78.547302 
	C462.668640,79.221947 462.031067,79.448730 461.679047,79.898842 
	C457.747559,84.925407 454.925201,85.930016 449.446533,83.764732 
	C445.110596,82.051079 447.378143,78.149574 447.082153,75.219978 
	C446.732330,71.757607 447.283051,68.202690 446.914581,64.744232 
	C446.592987,61.725281 445.537384,58.784527 444.509186,54.601254 
	C442.704498,57.095989 441.528778,58.252953 440.915039,59.655777 
	C438.910797,64.236626 434.849945,64.803436 431.063751,63.799782 
	C427.222839,62.781639 426.502136,58.848721 425.948547,55.166927 
	C425.274384,50.683414 424.218048,46.257366 423.326996,41.806461 
	C422.809357,41.801003 422.291718,41.795544 421.774078,41.790085 
	C421.186951,42.643726 420.184052,43.448254 420.076508,44.358551 
	C418.894897,54.362808 409.268494,56.754730 401.941437,49.602356 
	C399.358856,47.081360 395.867310,45.491539 392.790771,43.476543 
	C392.446686,43.861225 392.102600,44.245903 391.758545,44.630581 
	C393.515747,48.515266 394.956970,52.589226 397.133667,56.222614 
	C398.770386,58.954681 401.103271,60.686131 404.974396,61.254684 
	C411.514191,62.215191 418.034363,64.254097 424.172394,66.785965 
	C433.630646,70.687355 440.248535,78.281754 446.970673,86.658409 
z"/>


<path fill="red" opacity="1.000000" stroke="red" stroke-width="10" 
	d="
M446.766724,86.353317 
	C440.248535,78.281754 433.630646,70.687355 424.172394,66.785965 
	C418.034363,64.254097 411.514191,62.215191 404.974396,61.254684 
	C401.103271,60.686131 398.770386,58.954681 397.133667,56.222614 
	C394.956970,52.589226 393.515747,48.515266 391.758545,44.630581 
	C392.102600,44.245903 392.446686,43.861225 392.790771,43.476543 
	C395.867310,45.491539 399.358856,47.081360 401.941437,49.602356 
	C409.268494,56.754730 418.894897,54.362808 420.076508,44.358551 
	C420.184052,43.448254 421.186951,42.643726 421.774078,41.790085 
	C422.291718,41.795544 422.809357,41.801003 423.326996,41.806461 
	C424.218048,46.257366 425.274384,50.683414 425.948547,55.166927 
	C426.502136,58.848721 427.222839,62.781639 431.063751,63.799782 
	C434.849945,64.803436 438.910797,64.236626 440.915039,59.655777 
	C441.528778,58.252953 442.704498,57.095989 444.509186,54.601254 
	C445.537384,58.784527 446.592987,61.725281 446.914581,64.744232 
	C447.283051,68.202690 446.732330,71.757607 447.082153,75.219978 
	C447.378143,78.149574 445.110596,82.051079 449.446533,83.764732 
	C454.925201,85.930016 457.747559,84.925407 461.679047,79.898842 
	C462.031067,79.448730 462.668640,79.221947 463.699402,78.547302 
	C464.703125,86.759583 460.771210,92.968178 457.834137,99.410591 
	C457.754517,99.585197 455.492737,99.311600 455.038330,98.679367 
	C452.223328,94.762802 449.634552,90.683609 446.766724,86.353317 
z"/>
<path fill="#FFFFFF" opacity="1.000000" stroke="none" 
	d="
M384.811157,244.551422 
	C387.320068,236.619919 389.683411,229.030380 391.980133,221.420731 
	C392.443817,219.884491 392.755859,218.285110 392.961761,216.692093 
	C393.378784,213.465485 393.650085,210.220139 394.057404,206.992096 
	C394.101837,206.640060 394.639313,206.079102 394.955780,206.073792 
	C398.765350,206.009827 402.576355,206.032394 407.259674,206.032394 
	C405.595428,227.756943 404.386353,249.182892 384.657959,264.032745 
	C381.505005,261.395844 378.130005,258.573273 373.493652,254.695786 
	C377.499390,251.171188 381.070770,248.028748 384.811157,244.551422 
z"/>
<path fill="#FFFFFF" opacity="1.000000" stroke="none" 
	d="
M156.847992,237.017090 
	C156.088715,235.694534 155.197128,234.234085 155.513596,233.115341 
	C156.462234,229.761627 157.882904,226.541428 158.793655,224.131042 
	C167.642166,225.468094 176.003448,227.570297 184.403336,227.737823 
	C191.236740,227.874130 198.179245,225.964554 204.944046,224.402191 
	C207.586319,223.791962 208.952133,224.122208 209.853043,226.466599 
	C211.100327,229.712372 212.251831,232.994949 213.544037,236.534836 
	C194.368637,242.116425 175.857910,243.478714 156.847992,237.017090 
z"/>
<path fill="#FFFFFF" opacity="1.000000" stroke="none" 
	d="
M141.661957,230.242691 
	C138.403488,228.072159 135.630630,225.726334 132.453033,224.254013 
	C128.492371,222.418854 130.005310,220.138138 131.607193,218.121765 
	C133.590195,215.625671 136.066971,213.521851 138.213654,211.365860 
	C142.347076,214.124741 146.447830,216.861832 151.572540,220.282364 
	C149.608505,223.687881 147.499817,227.503876 145.138794,231.156799 
	C144.933990,231.473648 143.064285,230.714417 141.661957,230.242691 
z"/>
<path fill="#FFFFFF" opacity="1.000000" stroke="none" 
	d="
M364.995728,266.045593 
	C366.387268,264.229675 367.747681,262.775116 369.278290,261.138580 
	C372.696930,263.808868 376.068237,266.442169 379.961182,269.482941 
	C377.094208,273.261108 374.171539,277.112640 370.717682,281.664215 
	C367.104706,279.090881 363.474609,276.505341 359.386658,273.593719 
	C361.457642,270.925385 363.211151,268.666168 364.995728,266.045593 
z"/>
<path fill="#FFFFFF" opacity="1.000000" stroke="none" 
	d="
M404.012085,102.699577 
	C404.568146,97.065491 407.006683,94.151428 411.124329,94.020554 
	C415.328217,93.886948 418.014435,96.330658 418.868774,100.076851 
	C419.773529,104.044014 417.621307,107.005997 413.920258,108.574738 
	C410.100098,110.193985 406.875732,108.335289 404.012085,102.699577 
z"/>
</svg>