<svg version="1.1" id="Layer_1" xmlns="http://www.w3.org/2000/svg" xmlns:xlink="http://www.w3.org/1999/xlink" x="0px" y="0px"
	 width="100%" viewBox="0 0 90 79" enable-background="new 0 0 90 79" xml:space="preserve">

<path fill="#b9c9b9" opacity="1.000000" stroke="#b9c9b9"  
	d="
M50.101883,67.857208 
	C46.062519,64.718895 42.707985,64.374413 38.658806,67.702080 
	C36.081306,69.820312 32.470387,70.917122 29.148041,71.848061 
	C19.721443,74.489433 14.808289,70.548653 14.474281,60.890499 
	C14.195966,52.842762 18.817436,47.322475 23.657047,40.971210 
	C24.160624,42.604733 24.310101,43.707851 24.822134,44.603756 
	C25.565516,45.904461 26.520388,48.031994 27.473810,48.081020 
	C29.981407,48.209961 32.880447,48.001228 34.968758,46.794151 
	C36.760735,45.758362 36.209007,44.044994 33.792290,42.871532 
	C28.849667,40.471588 24.189028,37.490917 19.403696,34.744484 
	C23.520609,27.748775 31.914913,27.649408 41.405426,34.987724 
	C42.683022,34.008350 44.066448,32.947849 45.290829,32.009266 
	C43.646450,29.053427 41.939224,26.510077 40.754520,23.743011 
	C38.460777,18.385597 41.123425,14.515121 44.987751,11.067986 
	C48.895927,7.581738 52.812737,5.800618 57.981228,8.941760 
	C60.036079,10.190596 62.873714,10.151425 65.478508,10.725878 
	C62.592056,14.631473 65.245827,17.281231 68.470932,19.161144 
	C67.540787,21.373577 66.497513,23.235399 65.972855,25.233410 
	C64.914879,29.262400 63.053139,32.075150 58.526058,32.919209 
	C57.335350,33.141216 56.555595,35.567413 55.587120,36.981407 
	C57.154320,37.604141 58.925789,39.019451 60.244865,38.679485 
	C62.749813,38.033867 64.962898,36.315163 67.355255,35.162624 
	C75.636940,31.172842 83.135658,36.372276 82.782097,46.848015 
	C80.460213,46.138680 78.402946,45.377380 76.280762,44.912254 
	C75.031349,44.638412 73.678925,44.834621 72.372826,44.819420 
	C72.494835,46.192139 72.276535,47.715202 72.803864,48.908852 
	C74.274361,52.237331 76.261497,55.342579 77.661835,58.695831 
	C79.655029,63.468742 78.395576,67.972458 75.214470,71.732033 
	C72.089523,75.425232 67.547729,75.118080 63.593288,73.897217 
	C59.036537,72.490395 54.803261,70.035835 50.101883,67.857208 
M71.034943,56.422592 
	C70.703064,55.664906 70.509430,54.798416 70.014252,54.169262 
	C68.302628,51.994541 66.485947,49.902504 64.709267,47.778984 
	C63.585522,49.944790 62.461781,52.110596 61.217796,54.508144 
	C59.825581,54.233013 58.362789,53.943935 56.411209,53.558262 
	C56.819687,55.848289 57.124573,57.557545 57.452793,59.397640 
	C56.033688,60.164402 54.698730,60.885696 52.499706,62.073856 
	C56.099216,63.879845 58.842140,65.294296 61.618790,66.639099 
	C64.797920,68.178841 68.567574,69.071167 70.561508,65.780266 
	C71.906731,63.560032 71.137314,60.058563 71.034943,56.422592 
M19.356104,55.984390 
	C19.323616,61.844078 21.629932,66.077126 25.286064,66.868332 
	C28.906193,67.651733 34.243050,64.875267 36.007664,61.588902 
	C33.866760,58.968540 31.841297,56.489475 29.552675,53.688316 
	C28.692816,54.037506 27.392214,54.565681 26.085537,55.096325 
	C24.681934,53.271214 23.436579,51.651867 21.627136,49.299030 
	C20.706797,51.882301 20.113020,53.548958 19.356104,55.984390 
z"/>
fv
</svg>