<svg version="1.1" id="Layer_1" xmlns="http://www.w3.org/2000/svg" xmlns:xlink="http://www.w3.org/1999/xlink" x="0px" y="0px"
	 width="100%" viewBox="0 0 167 78" enable-background="new 0 0 167 78" xml:space="preserve">

<path fill="#000000" opacity="1.000000" stroke="none" 
	d="
M69.914688,69.944588 
	C67.898109,71.420731 66.137337,72.652122 63.280899,74.649780 
	C63.280899,68.011650 62.976288,62.927803 63.386742,57.902359 
	C63.665810,54.485588 63.304272,52.234306 59.720310,50.833088 
	C55.567951,49.209652 51.634140,47.019440 47.634747,45.016777 
	C46.254181,44.325466 44.961494,43.458645 42.401459,41.947689 
	C48.176014,39.804325 52.526768,37.928131 57.037102,36.589706 
	C61.441944,35.282589 61.466530,32.974224 59.600590,29.515484 
	C57.309158,25.268044 55.155182,20.939613 53.128941,16.559612 
	C52.411697,15.009191 52.244461,13.204329 51.826126,11.515629 
	C53.646046,11.648426 55.602325,11.400072 57.257874,11.992335 
	C60.848099,13.276722 64.237740,15.110495 67.794182,16.503111 
	C74.101677,18.972973 74.289757,18.745939 77.084145,12.655089 
	C78.358994,9.876343 80.136749,7.328327 81.686409,4.675659 
	C82.230843,4.659042 82.775276,4.642426 83.319702,4.625810 
	C84.622543,7.859600 86.033287,11.054842 87.205292,14.335375 
	C89.497307,20.750868 89.484718,20.774611 95.083618,16.703566 
	C96.245796,15.858531 97.493698,15.131410 100.289726,13.323220 
	C99.962708,17.294525 100.053810,19.938423 99.479530,22.428888 
	C98.007851,28.811092 98.229889,29.440697 104.626740,31.000391 
	C110.369476,32.400600 116.148361,33.652576 121.911293,34.969940 
	C122.014580,35.561012 122.117859,36.152084 122.221146,36.743156 
	C119.393417,38.109428 116.628639,39.630169 113.726128,40.812923 
	C105.106743,44.325260 104.932793,44.610065 108.133858,53.086304 
	C109.483215,56.659340 110.969917,60.189407 112.121490,63.825371 
	C113.019112,66.659492 111.908173,68.029060 108.798012,67.189758 
	C105.907860,66.409843 102.906212,65.921967 100.139534,64.833160 
	C95.651863,63.067074 93.522598,64.738541 91.894768,68.955482 
	C89.376564,75.478958 89.380402,75.153664 84.184258,70.093925 
	C76.854057,62.956146 80.191254,62.341850 69.914688,69.944588 
M67.292747,39.767872 
	C65.898773,41.019268 64.504791,42.270664 61.839302,44.663521 
	C70.979912,45.479729 70.848640,51.751572 71.727188,58.936287 
	C79.258110,48.971962 82.956650,56.872913 88.255714,62.018547 
	C88.291832,53.777092 94.673058,56.844482 97.566284,54.976517 
	C98.668373,48.938271 86.699326,42.574268 100.609215,37.879200 
	C89.141823,36.800575 85.286926,29.142479 81.212578,20.407040 
	C77.952751,26.091465 74.477730,30.274277 66.947990,25.241589 
	C68.342598,29.214079 69.617592,31.353170 69.703461,33.538971 
	C69.778992,35.461784 68.523987,37.436867 67.292747,39.767872 
z"/>
<path fill="#000000" opacity="1.000000" stroke="none" 
	d="
M15.671572,19.699425 
	C21.761549,17.715845 27.612606,17.141956 33.330765,19.378315 
	C37.794365,21.124023 39.180309,28.849184 36.212418,32.720898 
	C35.102528,34.168789 33.942009,36.186699 34.057213,37.858379 
	C34.529713,44.714668 27.482670,49.965523 21.053137,46.869877 
	C17.222927,45.025734 13.556525,42.547077 10.364534,39.732197 
	C3.464739,33.647556 4.377222,26.364889 12.286026,21.541014 
	C13.276731,20.936745 14.324996,20.426846 15.671572,19.699425 
M13.085847,28.781094 
	C15.092988,36.391945 20.291315,40.813423 26.429750,39.266560 
	C22.960207,35.259628 24.436634,32.372997 28.046818,29.378500 
	C30.645947,27.222631 28.776794,24.349592 26.210558,24.625916 
	C21.832113,25.097378 17.599361,26.921879 13.085847,28.781094 
z"/>
<path fill="#000000" opacity="1.000000" stroke="none" 
	d="
M156.130951,29.922632 
	C163.171661,36.724277 158.511230,44.374832 152.553635,51.020191 
	C150.850632,52.919807 148.287460,54.282513 145.857773,55.201656 
	C144.563904,55.691116 142.410172,55.143551 141.177353,54.292362 
	C138.853821,52.688076 137.206451,49.925240 134.749481,48.735405 
	C131.060059,46.948738 130.080826,44.764759 131.950516,41.315575 
	C134.089310,37.369972 135.568130,34.054119 130.054504,31.166033 
	C127.332092,29.740013 129.602844,27.773958 131.531815,26.917593 
	C140.163818,23.085421 148.496994,22.328522 156.130951,29.922632 
M143.774628,35.525963 
	C143.152985,39.930042 142.531342,44.334118 141.909698,48.738197 
	C142.311951,49.015160 142.714203,49.292122 143.116455,49.569084 
	C145.372452,47.817783 147.859055,46.292156 149.838135,44.269859 
	C154.458130,39.548977 153.049210,34.174538 146.831253,31.840137 
	C143.415451,30.557749 142.973770,32.051380 143.774628,35.525963 
z"/>


</svg>