<?xml version="1.0" encoding="UTF-8"?>
<!DOCTYPE svg PUBLIC "-//W3C//DTD SVG 1.1//EN" "http://www.w3.org/Graphics/SVG/1.1/DTD/svg11.dtd">
<svg xmlns="http://www.w3.org/2000/svg" version="1.1" width="72px" height="67px" style="shape-rendering:geometricPrecision; text-rendering:geometricPrecision; image-rendering:optimizeQuality; fill-rule:evenodd; clip-rule:evenodd" xmlns:xlink="http://www.w3.org/1999/xlink">
<path fill="#b9c9b9" opacity="1.000000" stroke="none" 
 d="M 35.5,18.5 C 35.6068,16.6214 35.1068,16.2881 34,17.5C 31.4488,21.3061 32.2821,23.9728 36.5,25.5C 37.2975,25.0431 37.6309,24.3764 37.5,23.5C 41.0425,20.4734 44.8758,17.8068 49,15.5C 53.1137,16.3034 55.947,18.6367 57.5,22.5C 56.086,23.624 54.586,24.624 53,25.5C 51.8286,29.3235 49.3286,31.6568 45.5,32.5C 42.83,32.4184 42.83,33.5851 45.5,36C 47.4628,36.8442 48.7961,36.3442 49.5,34.5C 52.0289,31.9021 55.0289,30.4021 58.5,30C 59.3567,30.6891 60.0233,31.5224 60.5,32.5C 59.1667,33.8333 59.1667,35.1667 60.5,36.5C 58.8847,39.4495 56.8847,42.1162 54.5,44.5C 54.8869,45.7199 55.7202,46.3865 57,46.5C 58.5671,45.1439 60.4004,44.4772 62.5,44.5C 61.6285,47.0618 61.6285,49.7284 62.5,52.5C 60.712,52.2148 59.0453,52.5481 57.5,53.5C 53.7749,61.5045 52.1083,60.8378 52.5,51.5C 47.8592,52.4788 43.1925,53.4788 38.5,54.5C 35.5047,53.2656 32.838,53.599 30.5,55.5C 31.8702,62.8928 30.5368,63.3928 26.5,57C 24.1527,56.6664 21.8194,56.833 19.5,57.5C 21.3758,55.0275 22.0425,52.3608 21.5,49.5C 23.4292,50.3802 25.2626,51.3802 27,52.5C 28.1685,51.9915 29.0019,51.1581 29.5,50C 26.3283,47.9936 23.6617,45.4936 21.5,42.5C 18.3604,44.0221 15.0271,44.8554 11.5,45C 7.15962,50.1749 5.15962,49.3416 5.5,42.5C 6.53251,30.4488 12.3658,27.1154 23,32.5C 27.7126,31.5282 28.546,29.1948 25.5,25.5C 21.8099,24.8055 18.1432,23.9722 14.5,23C 13.6667,22.1667 12.8333,21.3333 12,20.5C 11.7655,16.6858 10.9322,13.0192 9.5,9.5C 11.7812,8.72335 13.9479,7.72335 16,6.5C 16.4935,4.86586 16.6602,3.19919 16.5,1.5C 21.7768,1.86529 27.1101,2.03196 32.5,2C 37.9165,6.76145 38.9165,12.2614 35.5,18.5 Z"/>

</svg>
