<?xml version="1.0" encoding="UTF-8"?>
<!DOCTYPE svg PUBLIC "-//W3C//DTD SVG 1.1//EN" "http://www.w3.org/Graphics/SVG/1.1/DTD/svg11.dtd">
<svg xmlns="http://www.w3.org/2000/svg" version="1.1" width="64px" height="65px" style="shape-rendering:geometricPrecision; text-rendering:geometricPrecision; image-rendering:optimizeQuality; fill-rule:evenodd; clip-rule:evenodd" xmlns:xlink="http://www.w3.org/1999/xlink">
<path fill="#b9c9b9" opacity="1.000000" stroke="none" 
d="M 25.5,4.5 C 26.391,3.89022 27.391,3.55688 28.5,3.5C 28.5,4.16667 28.5,4.83333 28.5,5.5C 28.0535,8.01011 28.7202,10.0101 30.5,11.5C 30.9528,12.4584 31.6195,13.2917 32.5,14C 31.0692,14.4652 29.9025,15.2986 29,16.5C 28.6049,19.2066 28.1049,21.8733 27.5,24.5C 27.5,25.1667 27.1667,25.5 26.5,25.5C 24.9731,25.427 23.9731,26.0937 23.5,27.5C 23.5,28.1667 23.1667,28.5 22.5,28.5C 21.0242,30.7089 21.6909,32.0423 24.5,32.5C 27.6085,32.7359 30.6085,32.4025 33.5,31.5C 35.8333,31.1667 37.1667,29.8333 37.5,27.5C 38.4716,25.5069 39.8049,25.1736 41.5,26.5C 42.1834,28.1765 43.5168,28.8432 45.5,28.5C 46.1495,30.4352 46.4828,32.4352 46.5,34.5C 46.5,35.1667 46.5,35.8333 46.5,36.5C 46.6716,37.4916 46.3382,38.1583 45.5,38.5C 44.0698,40.4547 44.4031,42.1214 46.5,43.5C 47.1667,43.8333 47.8333,44.1667 48.5,44.5C 50.0174,44.4894 51.1841,43.8228 52,42.5C 52.4828,43.448 52.6495,44.448 52.5,45.5C 51.5041,45.4142 50.6708,45.7476 50,46.5C 49.0615,49.1209 48.2281,51.7875 47.5,54.5C 46.8319,52.0312 46.1653,49.6979 45.5,47.5C 44.3991,46.4017 43.0657,46.235 41.5,47C 38.0601,50.1345 34.2267,52.6345 30,54.5C 29.3333,55.5 29.3333,56.5 30,57.5C 31.8022,58.7893 32.9688,60.4559 33.5,62.5C 28.2916,61.3436 23.2916,60.0103 18.5,58.5C 21.1985,58.5339 23.6985,57.8672 26,56.5C 26.6838,55.2161 26.5171,54.0495 25.5,53C 23.8659,52.5065 22.1992,52.3398 20.5,52.5C 19.4863,51.3263 18.153,50.6596 16.5,50.5C 15.8333,49.1667 14.8333,48.1667 13.5,47.5C 13.2041,45.597 12.5375,43.9303 11.5,42.5C 10.2134,38.9351 10.2134,35.2684 11.5,31.5C 12.6225,29.7116 12.7891,27.7116 12,25.5C 11.3292,24.7476 10.4959,24.4142 9.5,24.5C 8.50838,24.6716 7.84171,24.3382 7.5,23.5C 7.3404,21.847 6.67373,20.5137 5.5,19.5C 5.5,16.5 5.5,13.5 5.5,10.5C 8.97201,6.58954 13.3053,3.92287 18.5,2.5C 20.7294,3.57706 23.0628,4.24372 25.5,4.5 Z"/>
</svg>
