<?xml version="1.0" encoding="UTF-8"?>
<!DOCTYPE svg PUBLIC "-//W3C//DTD SVG 1.1//EN" "http://www.w3.org/Graphics/SVG/1.1/DTD/svg11.dtd">
<svg xmlns="http://www.w3.org/2000/svg" version="1.1" width="64px" height="65px" style="shape-rendering:geometricPrecision; text-rendering:geometricPrecision; image-rendering:optimizeQuality; fill-rule:evenodd; clip-rule:evenodd" xmlns:xlink="http://www.w3.org/1999/xlink">
<g><path style="opacity:0.357" fill="#bcbfbd" d="M 28.5,3.5 C 27.391,3.55688 26.391,3.89022 25.5,4.5C 26.1403,1.31784 27.1403,0.984509 28.5,3.5 Z"/></g>
<g><path style="opacity:0.999" fill="#0b0c0b" d="M 25.5,4.5 C 26.391,3.89022 27.391,3.55688 28.5,3.5C 28.5,4.16667 28.5,4.83333 28.5,5.5C 28.0535,8.01011 28.7202,10.0101 30.5,11.5C 30.9528,12.4584 31.6195,13.2917 32.5,14C 31.0692,14.4652 29.9025,15.2986 29,16.5C 28.6049,19.2066 28.1049,21.8733 27.5,24.5C 27.5,25.1667 27.1667,25.5 26.5,25.5C 24.9731,25.427 23.9731,26.0937 23.5,27.5C 23.5,28.1667 23.1667,28.5 22.5,28.5C 21.0242,30.7089 21.6909,32.0423 24.5,32.5C 27.6085,32.7359 30.6085,32.4025 33.5,31.5C 35.8333,31.1667 37.1667,29.8333 37.5,27.5C 38.4716,25.5069 39.8049,25.1736 41.5,26.5C 42.1834,28.1765 43.5168,28.8432 45.5,28.5C 46.1495,30.4352 46.4828,32.4352 46.5,34.5C 46.5,35.1667 46.5,35.8333 46.5,36.5C 46.6716,37.4916 46.3382,38.1583 45.5,38.5C 44.0698,40.4547 44.4031,42.1214 46.5,43.5C 47.1667,43.8333 47.8333,44.1667 48.5,44.5C 50.0174,44.4894 51.1841,43.8228 52,42.5C 52.4828,43.448 52.6495,44.448 52.5,45.5C 51.5041,45.4142 50.6708,45.7476 50,46.5C 49.0615,49.1209 48.2281,51.7875 47.5,54.5C 46.8319,52.0312 46.1653,49.6979 45.5,47.5C 44.3991,46.4017 43.0657,46.235 41.5,47C 38.0601,50.1345 34.2267,52.6345 30,54.5C 29.3333,55.5 29.3333,56.5 30,57.5C 31.8022,58.7893 32.9688,60.4559 33.5,62.5C 28.2916,61.3436 23.2916,60.0103 18.5,58.5C 21.1985,58.5339 23.6985,57.8672 26,56.5C 26.6838,55.2161 26.5171,54.0495 25.5,53C 23.8659,52.5065 22.1992,52.3398 20.5,52.5C 19.4863,51.3263 18.153,50.6596 16.5,50.5C 15.8333,49.1667 14.8333,48.1667 13.5,47.5C 13.2041,45.597 12.5375,43.9303 11.5,42.5C 10.2134,38.9351 10.2134,35.2684 11.5,31.5C 12.6225,29.7116 12.7891,27.7116 12,25.5C 11.3292,24.7476 10.4959,24.4142 9.5,24.5C 8.50838,24.6716 7.84171,24.3382 7.5,23.5C 7.3404,21.847 6.67373,20.5137 5.5,19.5C 5.5,16.5 5.5,13.5 5.5,10.5C 8.97201,6.58954 13.3053,3.92287 18.5,2.5C 20.7294,3.57706 23.0628,4.24372 25.5,4.5 Z"/></g>
<g><path style="opacity:0.055" fill="#c5c7c3" d="M 28.5,5.5 C 29.4582,7.30236 30.1249,9.30236 30.5,11.5C 28.7202,10.0101 28.0535,8.01011 28.5,5.5 Z"/></g>
<g><path style="opacity:0.914" fill="#4d4e4d" d="M 5.5,10.5 C 5.5,13.5 5.5,16.5 5.5,19.5C 3.11969,16.4468 3.11969,13.4468 5.5,10.5 Z"/></g>
<g><path style="opacity:0.18" fill="#aeb4b0" d="M 30.5,11.5 C 36.9757,12.547 37.1423,14.2137 31,16.5C 30.2622,19.5015 29.0955,22.1682 27.5,24.5C 28.1049,21.8733 28.6049,19.2066 29,16.5C 29.9025,15.2986 31.0692,14.4652 32.5,14C 31.6195,13.2917 30.9528,12.4584 30.5,11.5 Z"/></g>
<g><path style="opacity:0.4" fill="#878787" d="M 5.5,19.5 C 6.67373,20.5137 7.3404,21.847 7.5,23.5C 5.89578,22.713 5.22911,21.3797 5.5,19.5 Z"/></g>
<g><path style="opacity:0.396" fill="#aeaead" d="M 41.5,26.5 C 39.8049,25.1736 38.4716,25.5069 37.5,27.5C 37.2222,25.6536 37.8888,24.3202 39.5,23.5C 40.9185,24.0047 41.5852,25.0047 41.5,26.5 Z"/></g>
<g><path style="opacity:0.471" fill="#939494" d="M 9.5,24.5 C 10.4959,24.4142 11.3292,24.7476 12,25.5C 12.7891,27.7116 12.6225,29.7116 11.5,31.5C 11.8342,28.812 11.1675,26.4786 9.5,24.5 Z"/></g>
<g><path style="opacity:0.09" fill="#c0c0c0" d="M 26.5,25.5 C 26.0269,26.9063 25.0269,27.573 23.5,27.5C 23.9731,26.0937 24.9731,25.427 26.5,25.5 Z"/></g>
<g><path style="opacity:0.259" fill="#a6a7a6" d="M 41.5,26.5 C 42.9952,26.9887 44.3285,27.6554 45.5,28.5C 43.5168,28.8432 42.1834,28.1765 41.5,26.5 Z"/></g>
<g><path style="opacity:0.059" fill="#d2d2d2" d="M 22.5,28.5 C 22.7329,30.0618 23.3995,31.3951 24.5,32.5C 21.6909,32.0423 21.0242,30.7089 22.5,28.5 Z"/></g>
<g><path style="opacity:0.584" fill="#8c8d8b" d="M 37.5,27.5 C 37.1667,29.8333 35.8333,31.1667 33.5,31.5C 34.5,29.8333 35.8333,28.5 37.5,27.5 Z"/></g>
<g><path style="opacity:0.584" fill="#636664" d="M 45.5,28.5 C 46.9063,28.9731 47.573,29.9731 47.5,31.5C 47.7373,32.791 47.404,33.791 46.5,34.5C 46.4828,32.4352 46.1495,30.4352 45.5,28.5 Z"/></g>
<g><path style="opacity:0.104" fill="#dbdcdb" d="M 47.5,31.5 C 48.9302,33.4547 48.5969,35.1214 46.5,36.5C 46.5,35.8333 46.5,35.1667 46.5,34.5C 47.404,33.791 47.7373,32.791 47.5,31.5 Z"/></g>
<g><path style="opacity:0.318" fill="#a6a7a5" d="M 45.5,38.5 C 45.6287,40.2161 45.962,41.8828 46.5,43.5C 44.4031,42.1214 44.0698,40.4547 45.5,38.5 Z"/></g>
<g><path style="opacity:0.678" fill="#7d7f7e" d="M 52.5,45.5 C 52.6495,44.448 52.4828,43.448 52,42.5C 51.1841,43.8228 50.0174,44.4894 48.5,44.5C 49.4006,42.2729 51.0672,41.2729 53.5,41.5C 53.7678,43.099 53.4345,44.4324 52.5,45.5 Z"/></g>
<g><path style="opacity:0.024" fill="#9a9b9b" d="M 11.5,42.5 C 12.5375,43.9303 13.2041,45.597 13.5,47.5C 11.7868,46.3646 11.1201,44.698 11.5,42.5 Z"/></g>
<g><path style="opacity:0.078" fill="#a5a5a5" d="M 13.5,47.5 C 14.8333,48.1667 15.8333,49.1667 16.5,50.5C 14.5,50.5 13.5,49.5 13.5,47.5 Z"/></g>
<g><path style="opacity:0.239" fill="#9fa4a1" d="M 16.5,50.5 C 18.153,50.6596 19.4863,51.3263 20.5,52.5C 18.6203,52.7709 17.287,52.1042 16.5,50.5 Z"/></g>
<g><path style="opacity:0.725" fill="#9da19c" d="M 52.5,45.5 C 50.1792,48.3622 49.0125,51.6955 49,55.5C 46.785,56.8198 45.285,56.1531 44.5,53.5C 45.3482,51.5914 45.6816,49.5914 45.5,47.5C 46.1653,49.6979 46.8319,52.0312 47.5,54.5C 48.2281,51.7875 49.0615,49.1209 50,46.5C 50.6708,45.7476 51.5041,45.4142 52.5,45.5 Z"/></g>
<g><path style="opacity:0.471" fill="#8f9090" d="M 20.5,52.5 C 22.1992,52.3398 23.8659,52.5065 25.5,53C 26.5171,54.0495 26.6838,55.2161 26,56.5C 23.6985,57.8672 21.1985,58.5339 18.5,58.5C 20.6964,57.1881 23.0297,56.0214 25.5,55C 23.8251,54.0147 22.1585,53.1814 20.5,52.5 Z"/></g>
<g><path style="opacity:0.165" fill="#b7b9b8" d="M 45.5,47.5 C 41.3004,50.1849 36.8004,52.5182 32,54.5C 31.3333,55.5 31.3333,56.5 32,57.5C 34.3012,58.8774 34.8012,60.544 33.5,62.5C 32.9688,60.4559 31.8022,58.7893 30,57.5C 29.3333,56.5 29.3333,55.5 30,54.5C 34.2267,52.6345 38.0601,50.1345 41.5,47C 43.0657,46.235 44.3991,46.4017 45.5,47.5 Z"/></g>
<g><path style="opacity:0.271" fill="#b4b6b4" d="M 18.5,58.5 C 23.2916,60.0103 28.2916,61.3436 33.5,62.5C 31.9106,63.6211 30.2439,63.4544 28.5,62C 24.8484,61.5014 21.1817,61.3347 17.5,61.5C 17.2627,60.209 17.596,59.209 18.5,58.5 Z"/></g>
</svg>
