<?xml version="1.0" encoding="UTF-8"?>
<!DOCTYPE svg PUBLIC "-//W3C//DTD SVG 1.1//EN" "http://www.w3.org/Graphics/SVG/1.1/DTD/svg11.dtd">
<svg xmlns="http://www.w3.org/2000/svg" version="1.1" width="68px" height="70px" style="shape-rendering:geometricPrecision; text-rendering:geometricPrecision; image-rendering:optimizeQuality; fill-rule:evenodd; clip-rule:evenodd" xmlns:xlink="http://www.w3.org/1999/xlink">
<g><path style="opacity:0.905" fill="#020202" d="M 67.5,49.5 C 67.5,50.1667 67.5,50.8333 67.5,51.5C 66.2058,52.2899 65.0391,53.2899 64,54.5C 64.0574,57.9723 63.0574,60.9723 61,63.5C 58.9539,61.2998 57.9539,58.6331 58,55.5C 56.9383,54.9032 55.7716,54.5698 54.5,54.5C 48.2452,56.6489 41.9119,58.6489 35.5,60.5C 38.5231,63.3818 38.0231,65.3818 34,66.5C 32.6043,65.6057 31.1043,64.9391 29.5,64.5C 25.5997,65.809 21.5997,66.4757 17.5,66.5C 17.5,64.8333 17.5,63.1667 17.5,61.5C 21.9863,59.7138 26.653,58.3805 31.5,57.5C 31.9312,56.7065 32.2645,55.8732 32.5,55C 25.9662,50.1003 23.1329,43.6003 24,35.5C 25.4992,32.3283 24.3326,31.6617 20.5,33.5C 15.0731,31.2501 9.7398,28.7501 4.5,26C 3.5,25 2.5,24 1.5,23C 3.60887,21.8589 5.44221,20.3589 7,18.5C 10.9642,4.25305 19.1308,0.753053 31.5,8C 36.4359,14.5494 36.7692,21.3828 32.5,28.5C 36.0545,34.7815 40.2212,35.1148 45,29.5C 46.897,20.5595 49.5636,20.2261 53,28.5C 58.072,29.9757 60.072,33.3091 59,38.5C 58.1325,40.6843 57.2992,42.851 56.5,45C 57.9048,50.9582 60.7382,51.7916 65,47.5C 66.0111,48.0556 66.8444,48.7222 67.5,49.5 Z"/></g>
</svg>
