<svg version="1.1" id="Layer_1" xmlns="http://www.w3.org/2000/svg" xmlns:xlink="http://www.w3.org/1999/xlink" x="0px" y="0px"
	 width="100%" viewBox="0 0 512 512" enable-background="new 0 0 512 512" xml:space="preserve">

<path fill="#DCE0DF" opacity="1.000000" stroke="white" stroke-width="10" 
	d="
M205.238770,449.003052 
	C196.095535,449.667999 187.425293,450.735291 178.747147,450.804016 
	C175.036621,450.833405 173.958084,447.355835 173.885071,443.575592 
	C173.801346,439.239807 176.256882,437.459778 179.690659,437.095276 
	C188.493500,436.160706 197.344971,435.689392 206.173492,434.988678 
	C209.598190,434.716888 213.210785,434.892242 216.364243,433.792633 
	C218.496735,433.049042 220.329056,430.668182 221.689194,428.617432 
	C228.453506,418.418762 235.027100,408.093384 241.633011,397.790283 
	C242.228989,396.860718 242.576706,395.771973 243.201630,394.402344 
	C232.629578,391.350464 225.063644,384.580597 220.024445,375.333588 
	C216.743622,369.313293 213.859634,362.824768 212.322662,356.192627 
	C211.256409,351.591766 208.993225,349.991852 205.315704,347.890198 
	C194.567062,341.747437 183.978745,335.240967 173.817245,328.173096 
	C157.874893,317.084412 145.469696,302.413818 135.583084,285.917236 
	C127.298813,272.094177 121.957535,256.814392 118.058159,241.149963 
	C116.073952,233.179092 114.694794,225.058533 112.964264,217.022415 
	C112.739037,215.976517 112.293991,214.749680 111.533348,214.082825 
	C104.250969,207.698654 104.534035,199.570465 106.406540,191.262817 
	C107.745766,185.321152 109.700539,179.518204 111.446083,173.424942 
	C97.052017,168.979675 82.442795,164.550827 67.893578,159.932938 
	C62.276737,158.150162 59.983894,152.054901 65.037582,147.582001 
	C74.082581,139.576508 83.553612,132.048340 92.503647,123.942024 
	C95.183128,121.515152 96.722221,117.829178 99.210838,114.075989 
	C94.143082,111.232780 89.153793,108.465088 84.194809,105.644096 
	C76.607361,101.327866 73.097763,94.925133 73.966866,86.098969 
	C74.701935,78.633888 78.950058,73.958618 85.417389,70.957390 
	C86.693199,70.365334 88.272438,70.457062 89.609047,69.958260 
	C91.146599,69.384468 93.284615,68.890457 93.928726,67.696533 
	C98.605598,59.027660 106.203758,57.284111 115.124367,57.910828 
	C116.722176,58.023079 118.798363,57.412205 119.978577,56.370419 
	C126.448425,50.659389 133.810608,50.512733 140.981354,53.733017 
	C147.419647,56.624371 151.448715,62.094734 150.923218,69.655937 
	C150.669022,73.313324 149.341080,76.886971 148.955780,80.546593 
	C148.442871,85.418045 148.283493,90.335487 148.236877,95.235695 
	C148.231308,95.820435 149.802689,96.670158 150.775650,96.977219 
	C169.085205,102.755821 182.949844,114.310059 192.934204,130.385742 
	C198.603867,139.514420 203.540894,149.138733 208.264114,158.805511 
	C216.095200,174.832962 229.191620,183.632156 246.181137,186.884308 
	C254.792374,188.532654 263.671997,190.113419 272.357086,189.785522 
	C296.243500,188.883713 319.523285,184.459671 341.923370,175.605820 
	C354.796051,170.517807 365.448456,162.449356 375.919800,153.724182 
	C387.810547,143.816284 399.261414,133.027466 414.782806,128.687134 
	C427.456696,125.143066 441.118317,128.942307 447.841034,140.494461 
	C452.896576,149.181778 452.059021,158.806168 449.359253,168.003006 
	C447.474396,174.424011 444.249634,180.444855 441.778534,186.705704 
	C441.200623,188.169861 440.622437,190.111649 441.109344,191.444733 
	C446.205933,205.398468 441.178192,216.368149 431.431763,226.158478 
	C429.948303,227.648636 429.069122,229.740372 427.142822,232.755325 
	C430.116577,241.885681 427.133667,251.180084 416.674774,257.942017 
	C415.698273,258.573364 414.889832,260.626068 415.124969,261.792786 
	C417.841400,275.270874 414.435913,286.560944 403.982941,295.755280 
	C402.676941,296.904053 402.065582,299.493164 402.092621,301.401306 
	C402.268463,313.808746 399.972168,325.542480 394.091949,336.602173 
	C387.020355,349.902649 377.002380,360.108978 363.638184,367.047241 
	C361.229889,368.297516 358.944153,369.832214 356.442810,370.841431 
	C353.819580,371.899811 352.350433,373.305420 351.904083,376.322998 
	C351.131927,381.542755 347.933105,385.354553 343.611969,388.372162 
	C346.051208,403.279480 348.418701,418.425598 351.152252,433.505432 
	C351.457611,435.190033 353.581085,437.166748 355.315460,437.842438 
	C359.028748,439.289062 363.077484,439.846039 366.917358,441.004242 
	C370.855103,442.191925 372.891266,445.907867 371.984375,449.729370 
	C371.267639,452.749695 366.239349,455.681519 362.902893,454.929016 
	C360.386993,454.361542 357.744293,453.990723 355.437225,452.926941 
	C346.214203,448.674316 337.215759,451.954041 328.156067,453.414001 
	C320.964294,454.572937 313.816833,456.102661 306.586975,456.896423 
	C301.660156,457.437286 299.240540,455.071838 299.001984,450.834229 
	C298.790955,447.084595 301.666626,443.713226 305.656860,443.003296 
	C315.045441,441.332916 324.437042,439.678711 333.813049,437.940430 
	C334.886200,437.741486 335.867950,437.049744 336.919495,436.574036 
	C334.462128,421.763855 332.028442,407.096405 329.538300,392.088898 
	C313.701996,392.984497 300.180420,384.906647 285.466614,379.972992 
	C279.556305,386.873077 272.204437,391.556030 263.067169,393.597687 
	C261.139160,394.028473 259.409027,396.608246 258.149048,398.560150 
	C250.026886,411.142426 242.004089,423.790497 234.149399,436.540680 
	C233.512939,437.573822 233.803970,440.116425 234.653397,440.952515 
	C237.298843,443.556458 240.351746,445.771423 243.374237,447.961090 
	C247.216660,450.744690 248.188141,455.478546 245.466431,459.037598 
	C242.775009,462.557098 238.348740,463.051178 234.656815,460.084473 
	C230.464920,456.716095 226.497269,453.055695 222.180023,449.863220 
	C220.647842,448.730225 218.379044,448.126434 216.440125,448.111542 
	C212.865433,448.083954 209.286026,448.670441 205.238770,449.003052 
M411.488098,230.888779 
	C409.887817,226.703857 412.240692,224.070648 415.067169,221.551865 
	C418.642181,218.365997 422.362274,215.301682 425.622650,211.813721 
	C430.404358,206.698303 431.066986,199.327805 426.987610,194.635071 
	C423.944366,191.134186 424.780731,188.184937 426.729645,184.796936 
	C431.261749,176.918350 435.600494,169.053543 437.318054,159.844589 
	C438.357513,154.271362 438.462494,149.045990 434.472992,145.251755 
	C429.905609,140.907913 423.786377,139.114227 417.730865,142.089722 
	C411.055603,145.369751 404.364166,148.895615 398.410309,153.301559 
	C388.792725,160.418732 379.958099,168.585526 370.452576,175.864746 
	C358.952637,184.671295 345.488251,189.538803 331.767517,193.615402 
	C312.442566,199.357132 292.769806,203.147537 272.510986,202.958023 
	C266.572906,202.902466 260.637482,202.368988 254.704559,201.995178 
	C241.811523,201.182877 229.784012,197.309387 218.747971,190.783142 
	C209.100677,185.078186 201.445984,177.043503 197.153290,166.649200 
	C190.212524,149.842941 181.632736,134.251846 167.696167,122.201607 
	C156.848022,112.821785 144.986862,106.291000 129.817596,109.977158 
	C121.009758,112.117477 113.397667,115.829102 108.753403,124.196922 
	C115.184372,128.304306 121.576187,131.894699 127.370354,136.275558 
	C130.737885,138.821701 133.907059,142.238266 135.850449,145.951431 
	C143.073334,159.751862 148.997787,174.031616 151.363892,189.673401 
	C153.823425,205.932938 148.714294,221.198868 128.046631,222.312958 
	C128.107971,223.404510 127.983238,224.551544 128.261398,225.590744 
	C130.099854,232.459076 132.077225,239.290222 133.912766,246.159302 
	C142.500076,278.295441 161.268799,303.125427 188.274445,322.066620 
	C202.432434,331.996735 217.770203,338.832550 234.542847,343.704224 
	C250.273895,348.273376 264.905090,356.520020 280.240509,362.592255 
	C294.770172,368.345459 309.501923,373.625000 324.311157,378.619690 
	C331.593201,381.075775 338.878693,377.077820 338.929749,371.139832 
	C338.983276,364.906555 342.172852,362.137085 347.653259,359.871765 
	C370.536835,350.412781 390.499207,329.944153 388.033539,300.529877 
	C387.486023,293.998260 387.570984,287.908630 395.200928,285.260254 
	C395.626556,285.112488 395.918182,284.580994 396.274323,284.230255 
	C404.081024,276.541046 403.330139,267.157623 400.366730,258.094604 
	C398.237396,251.582367 398.894775,248.088348 406.665680,246.118744 
	C414.689484,244.085052 415.611115,242.224442 412.996857,234.299973 
	C412.691711,233.375015 412.310913,232.475021 411.488098,230.888779 
M119.054123,99.445290 
	C124.331490,98.056595 129.608856,96.667908 135.305969,95.168762 
	C134.920242,92.808937 134.190033,90.402290 134.205322,88.000374 
	C134.235901,83.201241 132.567322,78.168495 136.499573,73.788071 
	C137.510895,72.661491 137.629059,69.697441 136.858459,68.287590 
	C136.027100,66.766632 133.474396,65.021446 132.031006,65.291267 
	C130.172745,65.638641 127.813339,67.582649 127.164566,69.378845 
	C124.419960,76.977562 120.609428,78.060333 114.332268,72.898537 
	C113.023712,71.822510 110.335167,71.272255 108.850868,71.876259 
	C107.266945,72.520805 105.477097,74.727722 105.299927,76.412720 
	C104.400574,84.966057 102.789268,86.177116 94.838440,83.384903 
	C91.504166,82.213943 89.186302,83.233315 87.674492,86.554863 
	C86.255699,89.672050 87.600166,91.539497 90.083633,93.005402 
	C94.136673,95.397736 98.405075,97.460640 102.288063,100.096451 
	C106.921265,103.241524 111.289131,104.873459 116.085022,100.566353 
	C116.619942,100.085960 117.633652,100.138702 119.054123,99.445290 
M254.246307,380.999084 
	C260.736359,379.982330 267.345642,379.258057 272.258453,373.952850 
	C265.634857,368.799255 231.222794,354.896576 226.291290,355.288086 
	C231.360123,371.984406 239.747452,382.861603 254.246307,380.999084 
M119.000870,199.253082 
	C120.004440,205.033447 123.326012,207.839569 129.436707,208.069397 
	C135.734940,208.306290 136.638107,207.869247 138.029556,200.771286 
	C138.723251,197.232605 138.699738,193.276230 137.877762,189.772186 
	C135.834763,181.062698 133.147034,172.504440 130.718201,163.885452 
	C129.117905,165.143036 128.757812,166.014740 128.486465,166.913239 
	C125.316841,177.408279 122.160561,187.907379 119.000870,199.253082 
M91.325478,143.229584 
	C98.081429,143.229584 104.837379,143.229584 111.593330,143.229584 
	C108.412804,139.716629 105.203957,136.584824 101.414665,135.521515 
	C99.763077,135.058060 96.930504,138.848877 94.614845,140.683090 
	C93.732628,141.381882 92.795959,142.011917 91.325478,143.229584 
M106.863388,156.000488 
	C106.057190,156.000488 105.250992,156.000488 104.444801,156.000488 
	C104.376007,156.287842 104.307213,156.575195 104.238419,156.862564 
	C108.485909,158.162491 112.733398,159.462433 117.215614,160.834213 
	C117.902802,158.773010 118.445641,157.144760 119.266701,154.682022 
	C115.039757,155.163208 111.373413,155.580582 106.863388,156.000488 
z"/>

<path fill="red" opacity="1.000000" stroke="red" stroke-width="10" 
	d="
M118.739723,99.694748 
	C117.633652,100.138702 116.619942,100.085960 116.085022,100.566353 
	C111.289131,104.873459 106.921265,103.241524 102.288063,100.096451 
	C98.405075,97.460640 94.136673,95.397736 90.083633,93.005402 
	C87.600166,91.539497 86.255699,89.672050 87.674492,86.554863 
	C89.186302,83.233315 91.504166,82.213943 94.838440,83.384903 
	C102.789268,86.177116 104.400574,84.966057 105.299927,76.412720 
	C105.477097,74.727722 107.266945,72.520805 108.850868,71.876259 
	C110.335167,71.272255 113.023712,71.822510 114.332268,72.898537 
	C120.609428,78.060333 124.419960,76.977562 127.164566,69.378845 
	C127.813339,67.582649 130.172745,65.638641 132.031006,65.291267 
	C133.474396,65.021446 136.027100,66.766632 136.858459,68.287590 
	C137.629059,69.697441 137.510895,72.661491 136.499573,73.788071 
	C132.567322,78.168495 134.235901,83.201241 134.205322,88.000374 
	C134.190033,90.402290 134.920242,92.808937 135.305969,95.168762 
	C129.608856,96.667908 124.331490,98.056595 118.739723,99.694748 
z"/>

<path fill="red" opacity="1.000000" stroke="red" stroke-width="10"
	d="
M119.000809,198.829239 
	C122.160561,187.907379 125.316841,177.408279 128.486465,166.913239 
	C128.757812,166.014740 129.117905,165.143036 130.718201,163.885452 
	C133.147034,172.504440 135.834763,181.062698 137.877762,189.772186 
	C138.699738,193.276230 138.723251,197.232605 138.029556,200.771286 
	C136.638107,207.869247 135.734940,208.306290 129.436707,208.069397 
	C123.326012,207.839569 120.004440,205.033447 119.000809,198.829239 
z"/>
<path fill="#000000" opacity="1.000000" stroke="none" 
	d="
M91.604797,142.951447 
	C92.795959,142.011917 93.732628,141.381882 94.614845,140.683090 
	C96.930504,138.848877 99.763077,135.058060 101.414665,135.521515 
	C105.203957,136.584824 108.412804,139.716629 111.593330,143.229584 
	C104.837379,143.229584 98.081429,143.229584 91.604797,142.951447 
z"/>
<path fill="#000000" opacity="1.000000" stroke="none" 
	d="
M107.285233,155.999222 
	C111.373413,155.580582 115.039757,155.163208 119.266701,154.682022 
	C118.445641,157.144760 117.902802,158.773010 117.215614,160.834213 
	C112.733398,159.462433 108.485909,158.162491 104.238419,156.862564 
	C104.307213,156.575195 104.376007,156.287842 104.444801,156.000488 
	C105.250992,156.000488 106.057190,156.000488 107.285233,155.999222 
z"/>
<path fill="#DBDFDE" opacity="1.000000" stroke="none" 
	d="
M273.606506,285.388702 
	C286.916962,285.431793 299.919861,286.135376 312.714813,284.818512 
	C330.192627,283.019714 347.516144,279.708496 364.897583,276.992981 
	C371.778320,275.918030 372.523224,274.040131 369.068970,266.421417 
	C364.737701,256.868408 356.938873,250.286728 348.320404,245.285080 
	C337.600677,239.063980 326.040894,234.290634 314.845673,228.888474 
	C311.771912,227.405228 307.810272,226.243546 308.218567,222.067917 
	C308.428040,219.925476 310.620422,217.779037 312.352142,216.077576 
	C313.077240,215.365143 315.101288,215.352661 316.248230,215.783951 
	C337.395294,223.736130 357.910614,232.805740 373.512970,250.020309 
	C381.322906,258.637238 384.781555,268.435852 382.367401,280.248169 
	C381.111786,286.391663 376.835602,288.008575 371.947601,288.847504 
	C355.259613,291.711731 338.593262,294.899567 321.787933,296.820343 
	C308.024323,298.393494 294.032471,299.333252 280.217194,298.754364 
	C261.830963,297.983917 243.595428,295.120880 227.075790,285.965698 
	C225.092239,284.866425 223.210342,283.490387 221.520798,281.975494 
	C218.871017,279.599609 218.210693,276.719116 220.710083,273.844391 
	C223.081497,271.116882 225.980469,269.868500 229.370407,272.190063 
	C242.588943,281.242615 257.655518,284.005981 273.606506,285.388702 
z"/>
<path fill="#D3D7D6" opacity="1.000000" stroke="none" 
	d="
M136.769226,115.979355 
	C141.366302,122.666870 140.663452,127.655029 134.883942,128.794159 
	C132.331757,129.297180 128.701859,128.352310 126.769493,126.673767 
	C125.294945,125.392899 124.858047,121.659607 125.516136,119.489273 
	C126.405136,116.557381 128.926453,114.288406 132.679764,114.989510 
	C133.922836,115.221725 135.144913,115.566353 136.769226,115.979355 
M131.716492,127.944031 
	C132.954590,127.602814 134.794739,127.647545 135.310379,126.843193 
	C136.531113,124.938972 138.028061,122.476837 137.696075,120.533646 
	C137.405579,118.833267 134.943451,116.676758 133.124039,116.315262 
	C131.546951,116.001900 129.088043,117.525101 127.796776,118.944321 
	C125.475792,121.495300 126.992287,125.090607 131.716492,127.944031 
z"/>
<path fill="#000000" opacity="1.000000" stroke="none" 
	d="
M131.361023,127.779739 
	C126.992287,125.090607 125.475792,121.495300 127.796776,118.944321 
	C129.088043,117.525101 131.546951,116.001900 133.124039,116.315262 
	C134.943451,116.676758 137.405579,118.833267 137.696075,120.533646 
	C138.028061,122.476837 136.531113,124.938972 135.310379,126.843193 
	C134.794739,127.647545 132.954590,127.602814 131.361023,127.779739 
z"/>
</svg>