<svg version="1.1" id="Layer_1" xmlns="http://www.w3.org/2000/svg" xmlns:xlink="http://www.w3.org/1999/xlink" x="0px" y="0px"
	 width="100%" viewBox="0 0 512 512" enable-background="new 0 0 512 512" xml:space="preserve">

<path fill="#FFFFFF" opacity="1.000000" stroke="white" stroke-width="10" 
	d="
M271.341248,461.983704 
	C284.257721,462.113892 295.032684,466.886414 304.723328,474.301453 
	C310.123444,478.433502 315.766205,482.394135 318.115356,489.411682 
	C319.757324,494.316711 318.095062,497.946198 314.500122,500.894714 
	C311.055084,503.720306 306.922180,504.399445 303.260406,501.666687 
	C298.424500,498.057587 294.335907,493.404022 289.362274,490.030670 
	C274.410278,479.889526 256.761749,480.354950 242.644760,491.895081 
	C239.180923,494.726624 236.116257,498.055145 232.595123,500.805817 
	C228.197174,504.241547 221.704590,503.648834 218.410385,499.880066 
	C215.127548,496.124176 215.245987,488.980316 218.369492,485.042511 
	C224.754654,476.992889 232.846634,471.216797 242.109070,467.047913 
	C245.039673,465.728851 246.250183,464.103210 246.090057,460.759216 
	C245.781326,454.312012 246.000000,447.839539 246.000000,441.256989 
	C219.612488,439.320862 194.910278,432.205627 171.649094,420.719116 
	C154.112488,412.059448 137.620163,401.465302 122.922050,388.378296 
	C114.922096,381.255188 106.788467,374.240051 99.267601,366.630219 
	C85.618034,352.819153 74.988419,336.637787 64.002357,320.717987 
	C61.125561,316.549255 56.477005,313.155518 51.950718,310.659851 
	C40.149574,304.153137 38.459572,295.061829 47.919712,285.560181 
	C49.050411,284.424500 50.109531,283.217529 51.397484,281.833344 
	C47.629509,280.259918 44.293667,278.845276 40.941303,277.470917 
	C29.156984,272.639771 29.938297,261.047668 36.763783,253.740570 
	C41.531712,248.636200 50.957321,243.690186 60.729469,240.917892 
	C52.692413,230.688660 43.799320,220.615753 36.348610,209.569901 
	C27.147404,195.928925 20.663069,180.836563 21.228046,163.942383 
	C21.400814,158.776138 23.191191,152.913651 26.176823,148.762451 
	C31.016205,142.033798 39.772049,142.277344 45.666569,148.225342 
	C49.961174,152.558914 53.920486,157.222717 58.150490,161.622742 
	C69.988686,173.936768 84.146690,182.973267 99.073303,191.082016 
	C118.115959,201.426804 138.310745,208.716080 159.294998,213.465286 
	C173.338654,216.643707 187.795120,218.080124 202.114456,219.927063 
	C210.399109,220.995605 218.768204,221.703369 227.116623,221.927505 
	C250.574509,222.557251 269.490387,214.025345 281.914124,193.403839 
	C292.342163,176.094833 298.206299,156.844391 304.941223,137.988174 
	C310.669952,121.949234 316.862183,106.141716 326.080353,91.724556 
	C327.815338,89.011078 330.148346,86.679970 332.379333,83.960381 
	C324.267090,76.588646 320.471710,67.635338 320.993622,56.906662 
	C321.716614,42.044792 337.088654,25.734808 351.133484,27.134443 
	C356.259460,27.645273 358.496307,24.440355 360.897797,21.469397 
	C371.274323,8.632215 396.488922,8.267625 406.542267,22.036324 
	C407.689850,23.608013 408.747498,25.325979 410.193298,26.575140 
	C411.466156,27.674837 413.350189,29.073988 414.749023,28.869337 
	C434.242371,26.017447 450.559326,47.389183 444.970520,65.611801 
	C443.217621,71.327156 440.519531,76.752632 437.904724,83.167877 
	C443.443542,88.633308 447.861694,96.549660 450.215485,105.614975 
	C450.375183,106.229912 450.954529,106.796074 450.952179,107.383362 
	C450.933258,112.041389 453.041443,115.216713 456.603485,118.320938 
	C465.265808,125.869888 469.092133,136.218750 470.895569,147.231461 
	C471.820068,152.876968 471.735596,158.696060 471.984283,164.442001 
	C472.389526,173.804276 463.044739,177.242233 456.366180,173.806778 
	C451.409698,171.257187 446.368866,168.824203 441.198395,166.757645 
	C438.549042,165.698715 435.547058,165.465958 432.679047,165.025070 
	C429.473907,164.532379 427.617828,165.814194 425.529633,168.667267 
	C415.298645,182.645706 414.178741,198.027359 417.656403,214.181625 
	C421.247772,230.864075 425.719055,247.374664 428.774689,264.148193 
	C430.559204,273.944031 430.274384,284.111237 431.011597,294.104645 
	C432.267487,311.129730 429.864532,327.680176 423.931488,343.606415 
	C415.933289,365.076294 403.281067,383.443146 384.951416,397.366150 
	C374.819397,405.062378 364.475891,412.812592 353.246185,418.650330 
	C337.913361,426.621063 321.667206,432.877563 304.471924,435.992371 
	C292.521973,438.157013 280.545013,440.172699 268.001129,442.355682 
	C268.001129,447.144165 267.849365,452.939240 268.131744,458.713104 
	C268.186890,459.840881 269.926666,460.886292 271.341248,461.983704 
M323.039398,151.592834 
	C320.027313,159.869705 317.299530,168.263809 313.944305,176.399139 
	C306.829010,193.651352 299.260406,210.607391 285.007050,223.607513 
	C272.046173,235.428833 256.750885,242.031631 239.581696,242.740326 
	C225.133728,243.336700 210.586456,241.773911 196.093689,240.975693 
	C177.580582,239.956039 159.580582,236.142029 141.768951,231.070389 
	C111.664787,222.498596 83.368301,210.300995 58.472546,190.974121 
	C54.904522,188.204224 51.362850,185.400391 46.697662,181.740402 
	C47.149391,183.903122 47.154594,184.381393 47.344063,184.769760 
	C54.807796,200.069214 64.206688,214.017731 77.512291,224.801926 
	C83.065712,229.302948 89.483643,232.848221 95.832901,236.216568 
	C99.912170,238.380646 104.068230,242.746674 103.991943,246.611481 
	C103.903030,251.115906 100.494301,255.869370 95.657661,256.885254 
	C90.280151,258.014801 84.693634,258.112854 79.268379,259.061768 
	C73.807587,260.016846 68.433151,261.465637 63.135487,262.672028 
	C70.118950,267.192383 76.611404,271.650787 83.361176,275.677948 
	C88.217896,278.575653 88.962761,283.302612 87.675453,287.502228 
	C86.765762,290.469940 83.183983,292.954163 80.276436,294.865051 
	C78.048325,296.329376 75.009781,296.560577 72.879944,297.180603 
	C76.244583,301.204681 80.071564,304.976257 82.948715,309.369873 
	C92.571556,324.064667 102.305550,338.658142 114.742172,351.178986 
	C120.566994,357.043243 126.592018,362.727722 132.777222,368.210602 
	C142.566879,376.888702 152.118652,385.916687 166.115036,387.647308 
	C177.851761,389.098480 189.463959,392.146393 201.215744,392.702301 
	C210.884048,393.159668 220.866058,391.877960 230.377258,389.827789 
	C256.768188,384.139191 274.930908,367.483215 286.450348,343.787659 
	C293.484222,329.319061 297.143463,313.696564 297.195068,297.325470 
	C297.205933,293.877502 298.975861,289.823822 301.235016,287.145691 
	C304.197418,283.633881 308.857574,282.887451 313.183533,285.130859 
	C317.513977,287.376678 319.374146,291.548737 318.908813,296.151093 
	C317.779846,307.315704 317.450989,318.781097 314.512024,329.497894 
	C308.001740,353.237152 297.027191,374.553497 277.178131,390.516541 
	C265.634003,399.800598 252.971786,406.339294 238.748962,409.945343 
	C231.748322,411.720276 224.597733,412.903748 217.514999,414.354858 
	C227.223938,416.754547 236.879745,419.092743 246.656769,419.835388 
	C262.119781,421.009857 277.674866,420.164093 292.843048,416.867950 
	C316.511322,411.724640 339.138000,403.625061 359.382233,389.928650 
	C375.860443,378.780121 389.626068,364.897888 398.897583,347.194031 
	C411.980377,322.212677 412.147095,295.421997 407.622864,268.518707 
	C404.554932,250.275375 399.818329,232.316696 396.011169,214.192230 
	C393.435974,201.932755 393.859344,189.568817 397.303406,177.622101 
	C400.067841,168.032837 404.542999,159.201569 411.557800,151.572433 
	C415.187958,147.624313 418.803314,144.362717 423.901031,144.153366 
	C430.771973,143.871185 437.698578,144.530075 444.578094,145.076706 
	C447.268677,145.290482 448.699677,144.836411 446.949280,142.222778 
	C444.555145,138.648010 442.037384,135.015411 438.925568,132.097672 
	C435.079651,128.491547 431.242462,125.454857 430.894318,119.431168 
	C430.015015,104.218452 421.247131,94.432442 407.878540,88.449051 
	C398.809967,84.390221 389.211395,83.471992 379.248657,83.877007 
	C364.078461,84.493721 353.221161,91.896835 344.709015,103.736214 
	C334.429504,118.033775 329.134216,134.562195 323.039398,151.592834 
M372.453552,44.036758 
	C369.911591,52.726974 369.911743,52.726456 361.341888,49.993382 
	C360.273041,49.652504 359.156189,49.421700 358.138245,48.967926 
	C351.275391,45.908607 345.746552,49.670921 343.358032,56.323299 
	C342.052521,59.959347 342.695435,63.857819 346.107849,66.589203 
	C348.281036,68.328705 350.186127,69.675179 353.508759,68.205070 
	C373.877838,59.192734 394.383270,60.373901 414.923859,67.892357 
	C416.387543,68.428108 418.733398,68.192772 419.997833,67.331055 
	C424.038666,64.577271 426.209259,59.829784 423.085815,54.428627 
	C420.774078,50.431053 416.535339,48.733875 411.265411,50.311577 
	C407.028412,51.580044 402.831512,52.982349 398.561005,54.343056 
	C397.920929,52.263649 397.597198,50.686161 396.960663,49.247028 
	C395.347107,45.598923 393.684601,41.966213 391.870667,38.414688 
	C389.922821,34.600914 386.517090,32.382488 382.412689,33.146957 
	C377.060120,34.143913 374.014893,38.049072 372.453552,44.036758 
z"/>

<path fill="red" opacity="1.000000" stroke="red" stroke-width="10" 
	d="
M372.705200,43.721432 
	C374.014893,38.049072 377.060120,34.143913 382.412689,33.146957 
	C386.517090,32.382488 389.922821,34.600914 391.870667,38.414688 
	C393.684601,41.966213 395.347107,45.598923 396.960663,49.247028 
	C397.597198,50.686161 397.920929,52.263649 398.561005,54.343056 
	C402.831512,52.982349 407.028412,51.580044 411.265411,50.311577 
	C416.535339,48.733875 420.774078,50.431053 423.085815,54.428627 
	C426.209259,59.829784 424.038666,64.577271 419.997833,67.331055 
	C418.733398,68.192772 416.387543,68.428108 414.923859,67.892357 
	C394.383270,60.373901 373.877838,59.192734 353.508759,68.205070 
	C350.186127,69.675179 348.281036,68.328705 346.107849,66.589203 
	C342.695435,63.857819 342.052521,59.959347 343.358032,56.323299 
	C345.746552,49.670921 351.275391,45.908607 358.138245,48.967926 
	C359.156189,49.421700 360.273041,49.652504 361.341888,49.993382 
	C369.911743,52.726456 369.911591,52.726974 372.705200,43.721432 
z"/>
<path fill="#FFFFFF" opacity="1.000000" stroke="white" stroke-width="10" 
	d="
M407.262756,108.674164 
	C415.336975,119.909225 409.426636,133.376968 396.086426,134.972198 
	C388.164093,135.919586 379.538544,127.749847 379.017273,118.805153 
	C378.590179,111.476128 385.743866,103.651642 393.342834,102.980301 
	C398.846375,102.494072 403.424713,104.140442 407.262756,108.674164 
z"/>
</svg>