<svg version="1.1" id="Layer_1" xmlns="http://www.w3.org/2000/svg" xmlns:xlink="http://www.w3.org/1999/xlink" x="0px" y="0px"
	 width="100%" viewBox="0 0 512 512" enable-background="new 0 0 512 512" xml:space="preserve">

<path fill="#E1E3E5" opacity="1.000000" stroke="white" stroke-width="10" 
	d="
M113.675308,72.017776 
	C126.134270,76.942146 124.670540,75.955338 132.339890,87.588646 
	C133.107224,87.286263 134.263214,87.206902 134.671173,86.613380 
	C140.584579,78.009987 149.248184,73.634247 158.841324,70.626884 
	C168.361206,67.642494 179.585419,72.802368 180.966660,81.036140 
	C182.668198,91.179184 181.466187,101.100914 177.091110,110.403679 
	C173.548477,117.936424 169.417130,125.192307 165.265244,133.108002 
	C167.408096,134.014481 170.185364,134.825928 172.583023,136.268387 
	C181.557571,141.667572 190.332275,147.402267 199.366379,152.696381 
	C201.256409,153.803955 204.147491,154.378571 206.209076,153.825745 
	C218.757874,150.460709 231.054657,146.029755 243.722595,143.273895 
	C254.509384,140.927292 265.649170,139.808212 276.693054,139.136017 
	C291.240204,138.250580 305.871490,137.646118 320.420471,138.179382 
	C337.464050,138.804092 354.461761,141.166916 370.815674,146.170471 
	C382.432068,149.724564 393.584900,154.776306 405.045166,158.878769 
	C406.571136,159.425018 408.944794,158.767242 410.490448,157.895233 
	C417.623383,153.870972 424.954285,150.755936 433.355408,150.993271 
	C443.297089,151.274109 451.857574,159.285248 450.966248,168.980682 
	C450.490814,174.152664 450.136292,179.411758 448.861694,184.410873 
	C447.789459,188.616318 448.980499,191.500122 451.760254,194.265900 
	C460.720825,203.181503 467.388214,213.818695 472.869751,224.992798 
	C479.681091,238.877594 484.685333,253.523392 485.997253,269.146637 
	C486.696594,277.474487 488.191833,285.844818 487.831543,294.130920 
	C486.920898,315.074890 482.066895,335.152435 470.425873,352.912903 
	C463.703827,363.168640 456.873322,373.592255 448.554474,382.505737 
	C436.442719,395.483185 422.097046,406.023041 406.577850,414.866577 
	C385.126984,427.090179 362.029236,434.832428 338.023590,439.859863 
	C329.118317,441.724884 319.902191,442.435059 310.788513,442.899170 
	C296.728516,443.615173 282.613403,444.289032 268.561646,443.809418 
	C256.532745,443.398804 244.564713,441.298798 232.561340,440.025391 
	C213.818344,438.037018 195.781921,433.184326 178.009247,427.061584 
	C151.718979,418.004517 128.518295,404.068542 109.932533,383.270081 
	C96.261795,367.971771 87.512718,350.095551 83.902115,329.650421 
	C80.185211,308.603394 82.147240,288.163971 88.525383,267.961212 
	C88.815567,267.042053 88.772270,266.022156 89.012726,265.082031 
	C89.917175,261.545563 92.351990,257.525269 91.380424,254.640350 
	C90.481384,251.970764 85.652710,250.849792 83.091919,248.468887 
	C77.307175,243.090515 71.478271,237.674438 66.379860,231.668823 
	C61.943134,226.442612 58.464912,225.012909 51.536880,226.072235 
	C44.102245,227.209015 36.529404,227.517624 29.002993,227.940872 
	C26.031750,228.107971 25.035915,226.278793 26.762854,223.816605 
	C28.533337,221.292328 30.357092,218.548111 32.802155,216.803711 
	C39.484505,212.036316 46.571777,207.840103 53.343971,203.192261 
	C54.883606,202.135605 56.768188,200.214798 56.846508,198.611282 
	C57.489574,185.445297 61.931366,173.728516 69.431999,163.035873 
	C69.986122,162.245911 70.322517,161.303238 70.123123,161.700409 
	C62.090862,155.672028 53.647678,150.392090 46.510906,143.715652 
	C37.264076,135.065262 33.464787,123.633797 37.412090,111.358337 
	C41.540695,98.519066 50.743599,90.301201 64.506226,87.990822 
	C74.533676,86.307480 83.075829,89.591606 88.173660,97.716522 
	C89.240295,94.986839 90.132629,92.746719 90.992851,90.494331 
	C95.012657,79.969093 102.295380,71.935760 113.675308,72.017776 
M289.504364,344.000336 
	C309.656921,337.294556 330.374329,333.529755 351.580231,333.135803 
	C360.066620,332.978180 368.616394,334.039703 377.075226,335.060516 
	C393.277893,337.015869 408.479431,342.163513 421.894501,351.557739 
	C428.538971,356.210663 434.527191,361.825256 440.637909,367.202911 
	C442.857269,369.156067 444.827148,370.134460 446.892670,367.526825 
	C455.625305,356.502167 463.178528,344.835083 468.778625,331.784515 
	C477.946167,310.420349 479.537109,288.294037 475.755127,265.852417 
	C472.943237,249.167130 467.706848,233.009903 458.209747,218.658157 
	C453.881409,212.117310 449.248932,205.777771 444.451416,198.913376 
	C436.208191,212.217468 428.665253,224.391296 421.521332,235.921188 
	C430.100311,234.963974 438.882355,233.457901 447.703186,233.179092 
	C453.907745,232.982971 459.838806,235.367096 463.840271,240.600632 
	C469.635010,248.179581 467.576721,258.390076 460.809204,265.837921 
	C450.309479,277.393250 436.791809,283.967560 422.767792,289.532043 
	C403.013031,297.370331 382.512360,301.412262 361.186493,297.916443 
	C353.159241,296.600586 345.775330,293.942627 339.784454,287.508240 
	C328.936310,275.856995 320.384796,262.872772 314.037689,248.350082 
	C303.811432,224.951736 295.339264,201.126312 298.115326,174.968002 
	C298.663635,169.801193 299.922729,164.403885 302.235291,159.807877 
	C305.109253,154.096085 310.341705,150.087189 317.212677,151.136032 
	C324.796906,152.293747 331.244019,156.380722 335.823547,162.510239 
	C345.156067,175.001434 351.503479,189.044434 356.034698,203.932571 
	C357.258789,207.954559 358.605743,211.939133 360.238495,217.001907 
	C371.395691,198.173859 382.700073,180.968323 399.130371,166.631226 
	C394.701538,164.998535 391.258331,163.836151 387.896881,162.472382 
	C368.315948,154.528198 347.711609,150.998077 326.837006,150.248291 
	C310.712738,149.669144 294.482971,150.981689 278.348328,152.130783 
	C268.677704,152.819489 258.948273,154.157623 249.510452,156.347092 
	C226.914368,161.589157 204.785446,168.548325 184.882843,180.776352 
	C172.508041,188.379318 160.080215,196.285492 149.144623,205.751907 
	C131.890198,220.688202 118.671471,239.000687 109.918190,260.352783 
	C101.146683,281.749359 96.870613,303.634644 100.968605,326.758850 
	C104.275307,345.417938 112.728760,361.310852 125.563469,375.145172 
	C136.102798,386.505310 148.434616,395.445312 161.870193,402.894836 
	C167.029770,405.755646 172.619736,409.023651 178.210541,409.436035 
	C181.110596,409.649963 184.324783,403.904999 187.595306,401.081665 
	C204.772125,386.253723 222.895294,372.679993 243.517654,363.038788 
	C258.301514,356.127197 273.609406,350.336548 289.504364,344.000336 
M357.479431,344.999481 
	C344.901581,346.027985 332.070587,345.823334 319.798645,348.342194 
	C294.409302,353.553528 270.050262,362.338043 246.880783,374.065430 
	C229.705002,382.759094 213.320786,392.785370 198.431412,405.092407 
	C195.035400,407.899414 191.700439,410.780334 188.337402,413.627228 
	C188.692978,414.198273 189.048569,414.769318 189.404144,415.340332 
	C200.169434,417.978729 210.830688,421.212952 221.724564,423.114685 
	C237.732544,425.909149 253.847061,428.758667 270.026825,429.716827 
	C286.197296,430.674500 302.527954,429.757904 318.741577,428.838257 
	C328.092377,428.307831 337.504333,426.783478 346.619324,424.587921 
	C367.334076,419.598297 387.412262,412.607819 405.467438,401.013977 
	C416.464844,393.952118 426.923248,386.050781 438.207611,378.115967 
	C415.544342,354.886078 388.803833,345.596344 357.479431,344.999481 
M93.039375,159.439178 
	C88.893967,163.923798 84.071686,167.957443 80.727928,172.976166 
	C69.969856,189.123199 65.976639,206.178299 75.856384,224.448486 
	C80.637703,233.290359 87.697891,239.793976 96.980179,245.424881 
	C117.468933,205.379456 150.119522,178.141068 190.626755,158.756424 
	C183.305161,154.149979 176.322083,150.223663 169.002411,147.081421 
	C154.756104,140.965637 139.885437,140.578323 124.870888,143.601486 
	C113.124039,145.966690 102.793587,151.363785 93.039375,159.439178 
M102.292702,95.187744 
	C101.861610,100.071152 101.098175,104.953583 101.083733,109.838226 
	C101.065742,115.916908 101.793518,121.995277 101.896812,128.078903 
	C101.918633,129.363754 100.631699,130.670822 99.947784,131.967651 
	C98.575233,131.149658 96.617081,130.665558 95.928337,129.457657 
	C92.351486,123.184563 89.399895,116.541679 85.626801,110.398384 
	C83.097298,106.279884 79.985977,102.297523 76.373795,99.119423 
	C71.515892,94.845329 66.377808,97.734062 61.585373,100.121719 
	C50.602516,105.593498 45.116474,119.371368 51.191277,130.576431 
	C55.991425,139.430389 63.489552,145.231812 72.012566,149.913742 
	C75.397652,151.773254 78.816422,152.425232 82.380684,149.244125 
	C89.413437,142.967438 97.351036,138.069382 106.355179,134.918488 
	C119.051826,130.475464 131.820343,127.570030 145.447372,129.815659 
	C148.559464,130.328522 153.502350,129.933060 155.068024,127.952240 
	C164.358200,116.198769 171.055496,103.185272 169.994720,87.485786 
	C169.679565,82.821404 167.158371,80.704529 162.802841,82.143929 
	C153.678391,85.159363 146.162247,90.874001 140.085480,98.108505 
	C136.181778,102.755951 133.528305,108.436584 130.058304,113.477791 
	C129.237778,114.669830 127.387695,115.153191 126.011223,115.962555 
	C125.341003,114.639038 124.110725,113.311562 124.120056,111.992851 
	C124.138092,109.442703 124.427948,106.725693 125.369781,104.385597 
	C127.405090,99.328606 126.638435,94.776924 124.049255,90.241066 
	C119.584251,82.419060 112.428864,81.351318 106.682076,87.924789 
	C105.027473,89.817406 104.125023,92.367584 102.292702,95.187744 
M373.479950,271.014191 
	C381.102020,262.060760 389.056091,253.365829 396.272736,244.096725 
	C408.855469,227.935318 420.696320,211.176865 429.526611,192.634689 
	C432.714966,185.939789 434.296661,178.374390 435.836243,171.043411 
	C436.625366,167.285843 433.469910,164.788757 430.014771,166.147354 
	C424.841766,168.181473 419.250824,170.157181 415.136871,173.676453 
	C405.812531,181.652924 396.875854,190.181320 388.541138,199.188171 
	C380.125427,208.282593 372.527527,218.147003 364.824493,227.874542 
	C363.563446,229.466995 362.980164,232.147995 363.160431,234.232788 
	C363.874451,242.490982 365.309479,250.691010 365.905914,258.953857 
	C366.373535,265.431854 365.999664,271.970612 365.999664,280.322723 
	C368.640991,276.995819 370.812195,274.261078 373.479950,271.014191 
M316.995209,209.583069 
	C316.997406,210.082123 316.892761,210.609711 317.017242,211.076126 
	C322.419830,231.314728 329.542816,250.882172 340.481354,268.844208 
	C343.427979,273.682861 347.270081,277.976227 351.473267,283.542419 
	C352.596588,279.374207 353.844543,276.781921 353.903900,274.162720 
	C354.134369,263.993134 354.077942,253.905685 352.190399,243.736374 
	C348.209839,222.290588 342.205322,201.669571 331.243713,182.690887 
	C327.586151,176.358353 323.620758,170.253677 315.974792,166.457382 
	C310.159485,181.005386 313.745758,194.859756 316.995209,209.583069 
M397.972260,283.452820 
	C409.101074,278.615814 420.600800,274.462219 431.225250,268.695953 
	C438.044281,264.995026 443.875458,259.232788 449.559601,253.779709 
	C452.583740,250.878479 451.430420,249.140594 447.236481,247.966095 
	C440.191040,245.993011 433.433533,247.585464 426.536835,248.930161 
	C413.399567,251.491608 401.737061,256.317841 393.114899,267.231781 
	C389.628693,271.644592 385.331024,275.458954 381.145721,279.262970 
	C377.940491,282.176239 374.331696,284.645508 370.684967,287.481354 
	C374.034454,289.090637 389.984833,286.765350 397.972260,283.452820 
z"/>



<path fill="red" opacity="1.000000" stroke="red" stroke-width="10" 
	d="
M102.585213,94.902008 
	C104.125023,92.367584 105.027473,89.817406 106.682076,87.924789 
	C112.428864,81.351318 119.584251,82.419060 124.049255,90.241066 
	C126.638435,94.776924 127.405090,99.328606 125.369781,104.385597 
	C124.427948,106.725693 124.138092,109.442703 124.120056,111.992851 
	C124.110725,113.311562 125.341003,114.639038 126.011223,115.962555 
	C127.387695,115.153191 129.237778,114.669830 130.058304,113.477791 
	C133.528305,108.436584 136.181778,102.755951 140.085480,98.108505 
	C146.162247,90.874001 153.678391,85.159363 162.802841,82.143929 
	C167.158371,80.704529 169.679565,82.821404 169.994720,87.485786 
	C171.055496,103.185272 164.358200,116.198769 155.068024,127.952240 
	C153.502350,129.933060 148.559464,130.328522 145.447372,129.815659 
	C131.820343,127.570030 119.051826,130.475464 106.355179,134.918488 
	C97.351036,138.069382 89.413437,142.967438 82.380684,149.244125 
	C78.816422,152.425232 75.397652,151.773254 72.012566,149.913742 
	C63.489552,145.231812 55.991425,139.430389 51.191277,130.576431 
	C45.116474,119.371368 50.602516,105.593498 61.585373,100.121719 
	C66.377808,97.734062 71.515892,94.845329 76.373795,99.119423 
	C79.985977,102.297523 83.097298,106.279884 85.626801,110.398384 
	C89.399895,116.541679 92.351486,123.184563 95.928337,129.457657 
	C96.617081,130.665558 98.575233,131.149658 99.947784,131.967651 
	C100.631699,130.670822 101.918633,129.363754 101.896812,128.078903 
	C101.793518,121.995277 101.065742,115.916908 101.083733,109.838226 
	C101.098175,104.953583 101.861610,100.071152 102.585213,94.902008 
z"/>
<path fill="yellow" opacity="1.000000" stroke-width="10" 
	d="
M373.231659,271.270264 
	C370.812195,274.261078 368.640991,276.995819 365.999664,280.322723 
	C365.999664,271.970612 366.373535,265.431854 365.905914,258.953857 
	C365.309479,250.691010 363.874451,242.490982 363.160431,234.232788 
	C362.980164,232.147995 363.563446,229.466995 364.824493,227.874542 
	C372.527527,218.147003 380.125427,208.282593 388.541138,199.188171 
	C396.875854,190.181320 405.812531,181.652924 415.136871,173.676453 
	C419.250824,170.157181 424.841766,168.181473 430.014771,166.147354 
	C433.469910,164.788757 436.625366,167.285843 435.836243,171.043411 
	C434.296661,178.374390 432.714966,185.939789 429.526611,192.634689 
	C420.696320,211.176865 408.855469,227.935318 396.272736,244.096725 
	C389.056091,253.365829 381.102020,262.060760 373.231659,271.270264 
z"/>
<path fill="yellow" opacity="1.000000" stroke-width="10" 
	d="
M316.973267,209.150269 
	C313.745758,194.859756 310.159485,181.005386 315.974792,166.457382 
	C323.620758,170.253677 327.586151,176.358353 331.243713,182.690887 
	C342.205322,201.669571 348.209839,222.290588 352.190399,243.736374 
	C354.077942,253.905685 354.134369,263.993134 353.903900,274.162720 
	C353.844543,276.781921 352.596588,279.374207 351.473267,283.542419 
	C347.270081,277.976227 343.427979,273.682861 340.481354,268.844208 
	C329.542816,250.882172 322.419830,231.314728 317.017242,211.076126 
	C316.892761,210.609711 316.997406,210.082123 316.973267,209.150269 
z"/>
<path fill="yellow" opacity="1.000000" stroke-width="10" 
	d="
M397.640259,283.705017 
	C389.984833,286.765350 374.034454,289.090637 370.684967,287.481354 
	C374.331696,284.645508 377.940491,282.176239 381.145721,279.262970 
	C385.331024,275.458954 389.628693,271.644592 393.114899,267.231781 
	C401.737061,256.317841 413.399567,251.491608 426.536835,248.930161 
	C433.433533,247.585464 440.191040,245.993011 447.236481,247.966095 
	C451.430420,249.140594 452.583740,250.878479 449.559601,253.779709 
	C443.875458,259.232788 438.044281,264.995026 431.225250,268.695953 
	C420.600800,274.462219 409.101074,278.615814 397.640259,283.705017 
z"/>
<path fill="#E1E3E5" opacity="1.000000" stroke="white" stroke-width="10"
	d="
M202.750824,323.999207 
	C190.287872,323.332336 178.158279,323.583832 166.352814,321.749390 
	C153.616409,319.770355 142.410370,313.988159 137.407150,300.796814 
	C133.467056,290.408508 135.186325,274.842560 143.941742,265.545715 
	C160.264023,248.214081 179.794968,236.331467 203.058487,231.056290 
	C211.380539,229.169205 219.903320,227.609497 228.398117,227.190628 
	C237.892395,226.722473 247.066315,229.422272 254.695450,235.319641 
	C264.367157,242.795944 270.035034,262.460419 258.333221,272.134583 
	C257.091034,273.161530 255.799744,274.517639 254.342346,274.824768 
	C249.437988,275.858398 248.552475,278.573364 248.839432,283.341736 
	C249.414810,292.902069 247.518600,294.958557 235.946976,300.547180 
	C236.972778,302.814148 238.001465,305.102356 239.042374,307.385010 
	C241.611725,313.019348 240.411026,316.548828 234.612564,317.912384 
	C225.981033,319.942108 217.200058,321.336456 208.482559,323.000488 
	C206.730957,323.334869 204.978806,323.666290 202.750824,323.999207 
M221.117142,310.997986 
	C223.988083,310.309479 226.859009,309.620972 229.833008,308.907745 
	C221.254623,291.732483 202.978897,278.839233 183.855499,275.861298 
	C182.418472,275.637512 181.281387,273.487427 180.004898,272.232758 
	C181.104431,271.139526 182.046799,269.377930 183.332306,269.075623 
	C187.557175,268.082123 191.903778,267.072205 196.208511,267.050751 
	C210.158234,266.981293 224.190292,266.512329 238.033432,267.838379 
	C247.482620,268.743500 255.746399,264.994568 254.922012,257.275665 
	C254.352814,251.946106 251.927521,247.302261 247.384750,244.133652 
	C237.904449,237.521027 227.478424,238.239502 216.947601,240.528732 
	C199.706802,244.276627 183.846390,251.363800 169.999771,262.196350 
	C163.412872,267.349426 157.005997,273.470520 152.578064,280.458679 
	C147.035095,289.206604 149.595001,299.841309 160.428406,305.167816 
	C170.691467,310.213928 181.552872,311.234528 192.460556,311.828400 
	C201.665588,312.329620 210.952148,311.333496 221.117142,310.997986 
M213.485077,279.989563 
	C217.129715,282.962769 220.930237,285.766632 224.384689,288.946472 
	C230.499985,294.575653 237.972366,292.287018 240.026108,283.987244 
	C241.246658,279.054626 239.755173,276.779053 234.918045,275.979340 
	C232.226685,275.534302 229.587311,274.659485 226.885147,274.417175 
	C219.670868,273.770172 212.435303,273.360565 205.208191,272.856567 
	C205.095413,273.283478 204.982635,273.710419 204.869843,274.137360 
	C207.569855,275.909576 210.269852,277.681824 213.485077,279.989563 
z"/>
<path fill="#E1E3E5" opacity="1.000000" stroke="white" stroke-width="10" 
	d="
M120.211426,184.249573 
	C115.203438,187.258972 110.591766,190.257416 105.687935,192.659348 
	C103.768806,193.599350 101.194008,193.200699 98.917831,193.411743 
	C99.069443,191.321945 98.636078,188.955322 99.471832,187.189301 
	C103.540375,178.592056 109.715218,172.040146 118.847672,168.606506 
	C122.732391,167.145920 126.506729,167.834793 128.391296,171.168106 
	C130.405838,174.731339 128.775070,178.205902 125.083038,180.459732 
	C123.443062,181.460846 122.015068,182.809219 120.211426,184.249573 
z"/>
<path fill="white" opacity="1.000000" stroke="none" 
	d="
M220.659882,310.999054 
	C210.952148,311.333496 201.665588,312.329620 192.460556,311.828400 
	C181.552872,311.234528 170.691467,310.213928 160.428406,305.167816 
	C149.595001,299.841309 147.035095,289.206604 152.578064,280.458679 
	C157.005997,273.470520 163.412872,267.349426 169.999771,262.196350 
	C183.846390,251.363800 199.706802,244.276627 216.947601,240.528732 
	C227.478424,238.239502 237.904449,237.521027 247.384750,244.133652 
	C251.927521,247.302261 254.352814,251.946106 254.922012,257.275665 
	C255.746399,264.994568 247.482620,268.743500 238.033432,267.838379 
	C224.190292,266.512329 210.158234,266.981293 196.208511,267.050751 
	C191.903778,267.072205 187.557175,268.082123 183.332306,269.075623 
	C182.046799,269.377930 181.104431,271.139526 180.004883,272.232758 
	C181.281387,273.487427 182.418472,275.637512 183.855499,275.861298 
	C202.978897,278.839233 221.254623,291.732483 229.833008,308.907745 
	C226.859009,309.620972 223.988083,310.309479 220.659882,310.999054 
z"/>
<path fill="yellow" opacity="1.000000" stroke="none" 
	d="
M213.227478,279.721802 
	C210.269852,277.681824 207.569855,275.909576 204.869843,274.137360 
	C204.982635,273.710419 205.095413,273.283478 205.208191,272.856567 
	C212.435303,273.360565 219.670868,273.770172 226.885147,274.417175 
	C229.587311,274.659485 232.226685,275.534302 234.918045,275.979340 
	C239.755173,276.779053 241.246658,279.054626 240.026108,283.987244 
	C237.972366,292.287018 230.499985,294.575653 224.384689,288.946472 
	C220.930237,285.766632 217.129715,282.962769 213.227478,279.721802 
z"/>
</svg>