<svg version="1.1" id="Layer_1" xmlns="http://www.w3.org/2000/svg" xmlns:xlink="http://www.w3.org/1999/xlink" x="0px" y="0px"
	 width="100%" viewBox="0 0 90 79" enable-background="new 0 0 90 79" xml:space="preserve">
<path fill="black" opacity="1.000000" stroke="none" 
	d="
M84.161072,80.000000 
	C56.145912,80.000000 28.648867,80.000000 1.075910,80.000000 
	C1.075910,53.720280 1.075910,27.440296 1.075910,1.080153 
	C30.943165,1.080153 60.886593,1.080153 90.915009,1.080153 
	C90.915009,27.273603 90.915009,53.547573 90.915009,80.000000 
	C88.894402,80.000000 86.786789,80.000000 84.161072,80.000000 
M22.010780,65.126358 
	C22.010780,65.126358 22.063898,64.954384 21.973820,64.586288 
	C21.700848,64.283592 21.427876,63.980900 21.154903,63.678204 
	C21.109322,63.809082 20.985018,64.003265 21.031033,64.060486 
	C21.314295,64.412727 21.636009,64.734055 22.010780,65.126358 
M29.366175,54.341686 
	C29.949476,54.605904 30.532778,54.870121 31.116081,55.134338 
	C31.191927,54.706276 31.267775,54.278210 31.343620,53.850147 
	C30.496519,53.801575 29.649418,53.753002 28.310179,53.756908 
	C27.679804,54.116039 27.049429,54.475170 26.419054,54.834301 
	C26.578428,55.054634 26.737804,55.274967 26.897179,55.495304 
	C27.603695,55.013367 28.310213,54.531429 29.366175,54.341686 
M69.270645,52.380917 
	C67.183250,49.106106 65.167000,47.233185 62.655075,52.154926 
	C62.067024,53.307129 60.527222,54.041416 59.317638,54.795219 
	C56.287804,56.683376 54.556419,62.108261 56.466824,63.982071 
	C59.537605,66.994034 66.585510,68.370148 69.381859,66.362091 
	C74.112915,62.964710 72.242859,58.874908 70.421280,54.834602 
	C70.148979,54.230633 69.866180,53.631390 69.270645,52.380917 
M20.027632,53.116535 
	C20.027632,53.116535 19.999651,52.920536 19.999651,52.920536 
	C19.999651,52.920536 19.946331,53.110233 20.027632,53.116535 
M21.139442,50.100311 
	C21.139442,50.100311 21.200043,50.106987 21.139442,50.100311 
M19.511845,60.533840 
	C19.511845,60.533840 19.498264,60.487717 19.511845,60.533840 
z"/>
<path fill="#000000" opacity="1.000000" stroke="none" 
	d="
M69.429443,52.705437 
	C69.866180,53.631390 70.148979,54.230633 70.421280,54.834602 
	C72.242859,58.874908 74.112915,62.964710 69.381859,66.362091 
	C66.585510,68.370148 59.537605,66.994034 56.466824,63.982071 
	C54.556419,62.108261 56.287804,56.683376 59.317638,54.795219 
	C60.527222,54.041416 62.067024,53.307129 62.655075,52.154926 
	C65.167000,47.233185 67.183250,49.106106 69.429443,52.705437 
z"/>
<path fill="#070707" opacity="1.000000" stroke="none" 
	d="
M28.802317,53.704426 
	C29.649418,53.753002 30.496519,53.801575 31.343620,53.850147 
	C31.267775,54.278210 31.191927,54.706276 31.116081,55.134338 
	C30.532778,54.870121 29.949476,54.605904 29.138771,54.108749 
	C28.911369,53.875813 28.802317,53.704426 28.802317,53.704426 
z"/>
<path fill="#070707" opacity="1.000000" stroke="none" 
	d="
M28.964050,53.962654 
	C28.310213,54.531429 27.603695,55.013367 26.897179,55.495304 
	C26.737804,55.274967 26.578428,55.054634 26.419054,54.834301 
	C27.049429,54.475170 27.679804,54.116039 28.556248,53.730667 
	C28.802317,53.704426 28.911369,53.875813 28.964050,53.962654 
z"/>
<path fill="#070707" opacity="1.000000" stroke="none" 
	d="
M19.986980,53.113384 
	C19.946331,53.110233 19.999651,52.920536 19.999651,52.920536 
	C19.999651,52.920536 20.027632,53.116535 19.986980,53.113384 
z"/>
<path fill="#070707" opacity="1.000000" stroke="none" 
	d="
M21.944935,65.065659 
	C21.636009,64.734055 21.314295,64.412727 21.031033,64.060486 
	C20.985018,64.003265 21.109322,63.809082 21.154903,63.678204 
	C21.427876,63.980900 21.700848,64.283592 21.994118,64.803505 
	C22.014418,65.020721 21.944933,65.065659 21.944935,65.065659 
z"/>
<path fill="#070707" opacity="1.000000" stroke="none" 
	d="
M21.169743,50.103649 
	C21.200043,50.106987 21.139442,50.100311 21.169743,50.103649 
z"/>
<!-- <path fill="#070707" opacity="1.000000" stroke="none" 
	d="
M19.505054,60.510780 
	C19.498264,60.487717 19.511845,60.533840 19.505054,60.510780 
z"/> -->
<!-- <path fill="#070707" opacity="1.000000" stroke="none" 
	d="
M22.039158,64.987549 
	C22.063898,64.954384 22.010780,65.126358 21.977856,65.096008 
	C21.944933,65.065659 22.014418,65.020721 22.039158,64.987549 
z"/> -->
</svg>