<svg version="1.1" id="Layer_1" xmlns="http://www.w3.org/2000/svg" xmlns:xlink="http://www.w3.org/1999/xlink" x="0px" y="0px"
	 width="100%" viewBox="0 0 286 252" enable-background="new 0 0 286 252" xml:space="preserve">

<path fill="#090A09" opacity="1.000000" stroke="none" 
	d="
M133.220871,17.964050 
	C139.933136,28.433178 139.845505,40.365280 140.637924,52.123783 
	C140.743759,53.694164 140.908401,55.747932 141.894104,56.694382 
	C149.617920,64.110687 153.844101,73.351822 156.219498,83.742050 
	C157.591858,83.436005 158.619553,83.206818 159.961914,82.907463 
	C159.961914,84.639153 159.961914,86.058380 159.961914,87.713577 
	C161.285721,87.581116 162.323517,87.477272 163.573395,87.352203 
	C160.144104,94.991325 157.158539,102.464584 153.487579,109.584473 
	C149.926895,116.490524 145.685516,123.047531 141.690674,129.726486 
	C140.670456,131.432190 139.597290,133.146698 138.293869,134.634064 
	C135.639587,137.662949 132.738571,139.782410 129.198090,134.987885 
	C122.530571,142.523010 114.871490,141.070419 107.144333,137.735291 
	C103.745285,136.268219 101.826660,136.665298 100.316414,140.434113 
	C96.257874,150.562180 87.314049,155.177216 77.968803,159.066193 
	C72.458313,161.359344 66.789452,163.271927 60.911518,165.460022 
	C61.752979,169.300034 64.810272,170.296021 68.087158,170.953415 
	C79.122597,173.167328 88.353859,169.362839 96.585793,162.314926 
	C97.341064,161.668289 97.873245,160.620132 98.722649,160.254074 
	C100.434532,159.516281 102.395340,158.544083 104.047089,158.836060 
	C104.822853,158.973190 105.179253,161.800293 105.607910,163.439194 
	C105.799950,164.173401 105.702484,164.983307 105.753700,166.154495 
	C108.682327,165.807388 111.264000,165.342102 113.861008,165.229065 
	C118.301216,165.035812 120.876266,167.860947 120.794525,172.311462 
	C120.774010,173.428177 121.061775,174.849915 121.764030,175.632202 
	C126.525093,180.935867 126.017021,183.242416 119.264633,186.014572 
	C118.925446,194.048676 118.082649,195.162338 110.135567,193.350494 
	C94.256477,189.730255 78.330887,189.070267 62.096043,189.676147 
	C50.765903,190.098999 40.908783,185.472702 35.080608,174.861710 
	C32.982113,171.041107 30.671757,169.467682 26.009886,170.831940 
	C21.145464,172.255493 15.928130,172.473099 10.437557,172.630310 
	C7.006687,172.028458 4.003344,172.014236 1.000000,172.000000 
	C1.000000,170.285645 1.000000,168.571289 1.360950,166.157257 
	C10.574395,166.932022 13.074883,165.079056 13.661788,156.397583 
	C13.997593,151.430374 14.475359,146.437912 14.295496,141.478363 
	C13.981599,132.822952 14.345052,123.981819 9.807109,115.723312 
	C9.136109,114.618942 8.494734,113.827255 7.817183,112.659782 
	C7.937192,111.557213 8.093377,110.830429 8.552341,109.959946 
	C13.853068,104.924011 15.609552,99.194893 13.746222,92.389977 
	C12.235845,92.967613 11.089559,93.406006 9.819330,93.534126 
	C7.486417,89.970299 5.833493,90.792595 4.939250,94.064056 
	C4.220820,96.692322 3.930884,99.437714 3.343322,102.567413 
	C3.203696,106.014221 3.171559,109.024765 2.760654,112.135689 
	C1.921257,112.157387 1.460628,112.078697 1.000000,112.000000 
	C1.000000,104.645744 1.000000,97.291496 1.272100,89.294647 
	C2.744166,86.875481 3.944131,85.098907 5.516416,83.244324 
	C6.851790,83.288422 7.814847,83.410538 8.864453,83.857483 
	C10.694955,83.491714 12.438907,82.801117 14.605045,81.943344 
	C23.036568,91.108635 21.228439,101.010384 14.862268,111.224876 
	C19.492054,113.405182 23.573841,113.957893 28.159262,112.297974 
	C32.164467,110.848091 36.402351,109.810837 40.625172,109.237770 
	C51.025280,107.826378 61.475842,106.786781 71.758942,105.614464 
	C71.357170,103.359589 69.475021,99.645760 70.454185,96.984825 
	C73.198395,89.527260 71.886551,81.982887 72.459831,74.500137 
	C72.504906,73.911728 72.888214,73.349236 73.193542,72.573418 
	C74.453529,73.419289 75.462074,74.096359 76.671440,74.908249 
	C77.641464,71.389160 78.527756,68.173859 79.499413,64.648849 
	C81.437454,65.735474 82.650505,66.415611 83.088333,66.661095 
	C87.827484,61.274879 92.190033,56.316685 96.985947,50.865952 
	C91.063431,39.837742 84.636543,27.870375 78.238861,15.511137 
	C78.034714,14.099852 77.801361,13.080435 77.644005,11.733991 
	C77.823906,9.603408 77.927811,7.799851 78.353363,5.843431 
	C80.786133,4.209745 83.147850,1.502876 83.779144,7.025536 
	C83.691467,7.488486 83.707535,7.680869 83.539360,8.280984 
	C83.861725,11.131366 84.368324,13.574016 84.911156,16.400532 
	C91.827255,29.847891 98.707130,42.911381 105.596107,55.992153 
	C93.333252,57.659721 88.408470,67.233696 85.559441,78.696136 
	C84.112938,77.929832 83.044792,77.363976 82.132935,76.880905 
	C81.163811,79.924866 80.295044,82.653595 79.426277,85.382324 
	C78.675674,87.717148 78.823799,92.413048 78.129997,92.540924 
	C74.719101,93.169571 75.462723,95.574562 75.969101,97.042351 
	C77.898628,102.635353 79.302094,108.786957 82.713348,113.386574 
	C86.189995,118.074371 86.938812,122.092361 84.952797,127.114609 
	C83.913368,129.743118 83.033234,132.468414 81.687637,134.935364 
	C78.325829,141.098770 74.739128,147.139496 70.904488,153.818497 
	C79.112549,152.006912 85.402733,147.703171 90.021217,141.611237 
	C91.926857,139.097610 91.475883,134.797379 92.246452,130.468842 
	C92.532990,130.163101 93.917412,129.116348 94.700348,127.729958 
	C95.491188,126.329567 95.685806,124.592476 96.141624,123.002892 
	C97.460434,124.309967 98.991928,125.464401 100.059502,126.951797 
	C103.756630,132.102859 109.158363,134.524750 114.069298,133.241028 
	C115.346176,125.220413 112.644836,118.907524 104.648216,114.438683 
	C107.220367,113.035530 108.678215,112.240242 110.520630,111.235168 
	C110.881874,112.892967 110.767746,114.186378 111.350739,114.724472 
	C113.656418,116.852554 115.907990,119.485771 118.701218,120.512009 
	C121.428940,121.514183 124.524597,121.448975 126.177826,117.103584 
	C127.739204,112.999619 132.722839,113.152374 135.041260,116.621101 
	C137.856415,120.833000 133.457703,121.285675 131.609344,122.857880 
	C132.077499,125.215492 132.482147,127.253250 132.918839,129.452332 
	C139.645798,125.219933 141.675125,120.546013 139.597336,114.752167 
	C137.791992,109.718071 132.904663,107.602638 125.836296,108.854553 
	C124.531990,109.085564 123.234444,109.874802 121.984673,109.774178 
	C120.015503,109.615623 117.751892,109.417221 116.205452,108.364914 
	C110.451828,104.449738 104.935791,100.184914 99.340286,96.038223 
	C98.007065,95.050194 96.711502,94.011345 94.439346,92.253906 
	C103.505753,92.757210 103.391487,92.709686 106.637009,84.905960 
	C107.834122,82.027542 109.443230,79.226196 111.341652,76.756546 
	C113.978775,73.325958 118.091629,71.286888 121.887840,73.346024 
	C126.185860,75.677345 129.354507,75.841187 133.127228,72.479515 
	C132.607254,74.215508 132.087265,75.951500 131.559036,77.715012 
	C133.210831,77.999046 134.579163,78.234344 137.505768,78.737595 
	C134.661987,80.808899 132.770782,81.946342 131.192200,83.418945 
	C130.105194,84.432976 128.832367,85.856018 128.712799,87.192032 
	C128.233994,92.541618 128.173172,97.928619 127.953072,103.418762 
	C135.925781,104.774940 135.685135,104.622368 140.154861,97.572487 
	C142.325562,94.148750 145.611237,91.437180 148.350159,88.365753 
	C149.396301,87.192619 151.199539,85.888664 151.163651,84.689018 
	C150.950668,77.570061 149.694122,70.373810 144.085037,65.543091 
	C136.058884,58.630711 127.068649,53.313656 115.850014,53.199646 
	C114.420807,53.185116 112.447029,51.647282 111.685547,50.280357 
	C107.728470,43.177059 104.102989,35.889668 100.314812,28.691236 
	C99.304436,26.771286 98.127846,24.938805 97.385857,23.028639 
	C102.356689,29.065969 107.598969,34.781490 111.346916,41.349709 
	C113.614975,45.324455 115.619011,46.687531 120.073822,45.427986 
	C115.965981,33.287304 109.000237,23.155157 99.831123,14.093884 
	C99.457466,13.843483 99.280296,13.789528 98.997726,13.419900 
	C96.269867,11.044330 93.647408,8.984432 91.035606,6.728411 
	C91.046257,6.532287 90.835495,6.200793 90.891220,5.798784 
	C93.192970,5.342164 95.464088,5.064097 97.676079,5.312482 
	C99.120659,5.474695 100.479454,6.400774 101.990891,7.268579 
	C102.718201,8.056579 103.331314,8.560690 103.970589,9.032501 
	C103.996758,9.000201 103.952194,9.069507 104.076599,9.404351 
	C105.089249,11.182124 105.977493,12.625051 106.865738,14.067980 
	C107.181145,13.918950 107.496544,13.769919 107.811943,13.620890 
	C107.924736,11.408545 108.037521,9.196199 108.497513,6.855656 
	C111.955971,3.083733 117.583992,2.795953 123.793098,6.267463 
	C126.081978,9.022724 128.176224,11.483569 130.343521,14.306984 
	C131.351334,15.767718 132.286102,16.865883 133.220871,17.964050 
M117.410278,9.085705 
	C113.865410,9.587189 112.924515,11.881048 113.043434,15.723769 
	C113.105942,16.833996 113.168442,17.944221 113.192169,19.851435 
	C113.952560,21.501097 114.697998,23.157846 115.475998,24.799164 
	C118.371513,30.907671 121.686546,36.856861 124.064659,43.159931 
	C126.431984,49.434406 128.763351,51.639797 136.280502,51.809525 
	C136.235886,39.457180 134.421799,27.771545 125.833229,17.333773 
	C123.228363,14.651864 120.623489,11.969955 117.410278,9.085705 
M38.072670,163.309723 
	C38.625141,171.656296 42.395580,178.228226 50.174717,181.303986 
	C55.439880,183.385773 61.523453,185.407242 66.916222,184.758041 
	C80.042686,183.177826 92.369225,185.901459 104.834106,188.892410 
	C107.551811,189.544525 110.423523,189.554779 112.916267,189.826996 
	C112.727089,186.788620 111.756050,184.097916 112.688339,182.941055 
	C113.887947,181.452454 116.613846,181.193863 119.657677,180.033676 
	C116.625473,178.062271 114.433067,176.636856 112.176102,175.169479 
	C113.767670,173.501678 115.022034,172.187225 116.604858,170.528595 
	C110.738686,168.079910 103.015350,174.357788 100.180244,165.055969 
	C99.140831,165.810852 98.386948,166.172760 97.882820,166.752045 
	C88.628517,177.385513 73.913109,179.587326 61.961338,173.994904 
	C58.231987,172.249878 54.926277,168.550415 52.666172,164.964417 
	C49.410885,159.799408 44.608688,156.878815 37.970116,158.130676 
	C37.970116,159.526703 37.970116,160.994675 38.072670,163.309723 
M114.963524,81.324471 
	C112.042580,85.734306 109.121628,90.144135 105.972961,94.897758 
	C108.476448,96.268166 110.101891,97.157921 110.984467,97.641045 
	C113.681404,95.119644 115.740662,93.194420 117.982597,91.098404 
	C118.509644,88.669327 119.154831,85.695702 119.908859,82.220428 
	C118.469841,81.890450 117.091827,81.574455 114.963524,81.324471 
M141.590637,106.955467 
	C142.854294,108.362900 144.362671,111.986374 146.092468,109.017570 
	C148.840775,104.300713 150.097885,98.715012 151.985779,93.496841 
	C151.461136,93.251862 150.936478,93.006882 150.411835,92.761902 
	C145.051270,95.561859 143.327835,101.029152 141.590637,106.955467 
M30.403376,150.252090 
	C31.268553,150.233490 32.875072,150.310150 32.891479,150.182480 
	C33.429882,145.992737 33.815674,141.783401 34.224056,137.576950 
	C33.714500,137.525009 33.204948,137.473068 32.695393,137.421127 
	C30.821714,141.228149 27.810221,144.746033 30.403376,150.252090 
z"/>


</svg>